<svg width="50" height="50" viewBox="0 0 50 50" fill="none" xmlns="http://www.w3.org/2000/svg">
<path d="M25 44C24.6467 44 24.3037 43.8932 24.012 43.6939L15.4056 37.7906H13.941C12.4621 37.7906 11.2584 36.5869 11.2584 35.108V29.4717C11.2584 28.8308 11.6138 28.2639 12.1622 27.9804V18.8358C12.1622 15.4055 13.4973 12.1827 15.9232 9.75686C18.349 7.33103 21.5718 6 25 6C28.4283 6 31.6531 7.33514 34.0769 9.76097C36.5007 12.1868 37.8379 15.4096 37.8379 18.8378V28.4693C38.4089 28.9767 38.7417 29.7079 38.7417 30.4761V35.108C38.7417 36.5869 37.538 37.7906 36.0591 37.7906H34.5945L25.988 43.6939C25.6964 43.8932 25.3554 44 25 44Z" fill="#D9D9D6"/>
<path d="M37.3244 28.7157V18.8378C37.3244 12.0306 31.8072 6.51343 25.0001 6.51343C18.1929 6.51343 12.6758 12.0306 12.6758 18.8378V28.3378C12.1581 28.4569 11.772 28.9211 11.772 29.4736V35.11C11.772 36.3054 12.7456 37.2791 13.9411 37.2791H15.5658L24.3038 43.2707C24.7228 43.5583 25.2774 43.5583 25.6985 43.2707L34.4364 37.2791H36.0612C37.2566 37.2791 38.2302 36.3054 38.2302 35.11V30.4781C38.2302 29.753 37.8728 29.1121 37.3265 28.7178L37.3244 28.7157Z" fill="#000526"/>
<path d="M35.8393 16.032C35.5148 16.0361 35.2026 16.0792 34.9109 16.1737C35.5641 17.9505 35.8619 19.8546 35.8126 21.7525C36.3159 19.8813 36.3241 17.9073 35.8414 16.032H35.8393Z" fill="#0054FF"/>
<path d="M33.9229 12.0779C33.6395 12.3162 33.3622 12.5462 33.0869 12.7722C33.2019 12.9324 33.3129 13.0926 33.4238 13.2569C33.9003 13.9656 34.305 14.7153 34.6377 15.4917C34.9582 15.387 35.2909 15.3315 35.6298 15.3171C35.2519 14.171 34.6829 13.0762 33.925 12.0779H33.9229Z" fill="#0054FF"/>
<path d="M32.6658 12.2134C32.9328 11.9936 33.206 11.7677 33.4833 11.5356C33.3026 11.326 33.1136 11.1227 32.9144 10.9235C32.2468 10.2559 31.5155 9.69102 30.7412 9.22681C30.5645 9.49589 30.3386 9.73416 30.2975 9.77524C31.1664 10.4962 31.9613 11.3178 32.6658 12.2155V12.2134Z" fill="#0054FF"/>
<path d="M19.3842 10.3114C21.958 9.1406 24.7289 9.4713 27.432 9.70546C27.9188 9.72806 28.572 9.77735 29.0999 9.63768C27.9517 8.80579 26.6823 8.14644 25.3348 7.73357C25.1274 7.66989 24.9117 7.64114 24.696 7.6473C21.9333 7.72125 19.1911 8.81195 17.0816 10.9215C14.9721 13.031 14.4915 14.438 14.054 16.4715C14.7092 14.8201 15.6048 13.2898 16.8269 12.0574C17.5664 11.3302 18.4332 10.7325 19.3822 10.3114H19.3842Z" fill="#0054FF"/>
<path d="M30.1003 8.86944C29.256 8.43604 28.3666 8.11766 27.4587 7.91431C28.2475 8.30458 29.0034 8.77496 29.7161 9.31106C29.8599 9.17755 29.9873 9.02966 30.1023 8.86944H30.1003Z" fill="#0054FF"/>
<path d="M34.3337 16.4407C34.2146 16.5146 34.1016 16.5988 33.9927 16.6954C33.1937 17.4328 32.7726 18.4577 32.3104 19.456C32.3043 19.4704 32.2981 19.4868 32.2899 19.5012V17.7696C32.7089 16.9747 33.2307 16.2373 34.0153 15.7628C34.0297 15.7546 34.042 15.7484 34.0564 15.7402C33.6723 14.8344 33.1896 13.9676 32.6083 13.1603C32.4789 13.2651 32.3495 13.3699 32.2201 13.4726L31.7908 12.92C31.9222 12.8153 32.0537 12.7105 32.1851 12.6037C32.0126 12.388 31.8319 12.1785 31.6449 11.9731C31.0801 11.324 30.4577 10.716 29.784 10.1655C28.8679 10.6421 27.5491 10.4551 26.5735 10.3791C24.7597 10.1902 22.8926 10.0094 21.1015 10.412C19.6534 10.7283 18.2997 11.4452 17.2296 12.4702C15.2433 14.3743 14.28 17.1103 13.9472 18.238C13.8486 18.5748 13.8014 18.924 13.8137 19.2732C13.8774 20.9041 14.2943 22.5227 15.0646 24.0037C15.0646 24.0037 16.5805 23.0588 17.7082 22.3563V23.18C16.9893 23.6278 15.4076 24.6158 15.4076 24.6158C15.8677 25.3779 16.4264 26.0968 17.0837 26.7561C17.741 27.4155 17.1659 26.8362 17.207 26.8773H25.7786C26.0702 26.7212 26.3578 26.5528 26.633 26.37C27.4567 25.8359 28.1428 25.2053 28.7302 24.5069L29.1862 24.9629C29.0548 25.1108 28.9192 25.2567 28.7775 25.3963C28.227 25.9591 27.6108 26.4521 26.9473 26.8753H32.7911C32.8322 26.8362 32.8733 26.7951 32.9143 26.7541C33.6579 26.0105 34.2741 25.1868 34.765 24.3118C34.917 24.0427 35.0136 23.7449 35.0547 23.4388C35.3771 21.0869 35.1389 18.6652 34.3316 16.4407H34.3337Z" fill="#0054FF"/>
<path d="M28.3994 11.127L25 14.5265L21.6046 11.1311C21.3643 10.8908 20.974 10.8908 20.7337 11.1311L18.5646 13.3002C18.3325 13.5323 18.2031 13.8445 18.2031 14.1711V25.6656C18.2031 26.1052 18.7351 26.325 19.0453 26.0148L22.5249 22.5352C22.757 22.3031 22.8864 21.9909 22.8864 21.6643V19.0372L24.5645 20.7153C24.8049 20.9557 25.1951 20.9557 25.4354 20.7153L27.1177 19.0351V21.6869C27.1177 22.0135 27.2471 22.3278 27.4792 22.5578L30.9588 26.0374C31.269 26.3476 31.801 26.1278 31.801 25.6882V14.165C31.801 13.8384 31.6716 13.5241 31.4394 13.294L29.2724 11.127C29.0321 10.8867 28.6418 10.8867 28.4015 11.127H28.3994Z" fill="#000526"/>
<path d="M28.0462 21.962L30.7679 24.6836C30.8459 24.7617 30.9774 24.7062 30.9774 24.5974V15.1384C30.9774 15.0296 30.8439 14.9741 30.7679 15.0522L28.0462 17.7738C27.9764 17.8436 27.9374 17.9381 27.9374 18.0347V21.7032C27.9374 21.8018 27.9764 21.8963 28.0462 21.9641V21.962Z" fill="white"/>
<path d="M28.6902 11.9956L25.518 15.1677C25.4378 15.248 25.4378 15.378 25.518 15.4582L27.3772 17.3173C27.4574 17.3976 27.5874 17.3976 27.6677 17.3173L30.8398 14.1452C30.92 14.065 30.92 13.935 30.8398 13.8547L28.9807 11.9956C28.9004 11.9154 28.7704 11.9154 28.6902 11.9956Z" fill="white"/>
<path d="M21.0223 12.0035L19.1632 13.8626C19.083 13.9428 19.083 14.0728 19.1632 14.1531L24.8524 19.8422C24.9326 19.9225 25.0626 19.9225 25.1429 19.8422L27.002 17.9831C27.0822 17.9029 27.0822 17.7729 27.002 17.6926L21.3128 12.0035C21.2326 11.9232 21.1025 11.9232 21.0223 12.0035Z" fill="white"/>
<path d="M19.2343 24.6632L21.9559 21.9416C22.0258 21.8718 22.0648 21.7773 22.0648 21.6807V18.0122C22.0648 17.9136 22.0258 17.8191 21.9559 17.7513L19.2343 15.0297C19.1562 14.9517 19.0248 15.0071 19.0248 15.116V24.5749C19.0248 24.6838 19.1583 24.7392 19.2343 24.6612V24.6632Z" fill="white"/>
<path d="M24.1825 29.9954H22.5927V36.3753H24.1825V29.9954Z" fill="white"/>
<path d="M24.733 29.9954V31.4003H25.8032V36.3732H27.393V31.4003H28.4632V29.9954H24.733Z" fill="white"/>
<path d="M15.3295 34.9682H14.2655V29.2107H12.9386C12.7927 29.2107 12.6757 29.3278 12.6757 29.4736V35.1099C12.6757 35.8083 13.2426 36.3752 13.941 36.3752H16.9193V29.2127H15.3295V34.9703V34.9682Z" fill="white"/>
<path d="M36.0591 29.2107H33.321C33.1752 29.2107 33.0581 29.3278 33.0581 29.4736V36.3752H36.0591C36.7575 36.3752 37.3244 35.8083 37.3244 35.1099V30.478C37.3244 29.7797 36.7575 29.2127 36.0591 29.2127V29.2107ZM35.7345 34.9682H34.6479V30.6157H35.7345V34.9682Z" fill="white"/>
<path d="M29.0137 29.9954V36.3732H32.3433V34.9682H30.6035V33.8878H32.3433V32.4808H30.6035V31.4003H32.3433V29.9954H29.0137Z" fill="white"/>
<path d="M20.6639 29.9954H17.6855V36.3753H19.2754V31.4003H20.3394V36.3753H21.9292V31.2607C21.9292 30.5623 21.3623 29.9954 20.6639 29.9954Z" fill="white"/>
<path d="M17.6855 29.1943V27.6743H18.0204L18.2935 28.2371L18.5667 27.6743H18.9015V29.1943H18.5975V28.2371L18.2935 28.8533L17.9895 28.2371V29.1943H17.6855Z" fill="white"/>
<path d="M19.6636 29.1943V27.6743H20.5448V27.9475H19.9676V28.2967H20.3784V28.5699H19.9676V28.9191H20.5448V29.1923H19.6636V29.1943Z" fill="white"/>
<path d="M21.2185 29.1943V27.6743H21.5225V28.9211H21.958V29.1943H21.2185Z" fill="white"/>
<path d="M22.5927 29.1943V27.6743H23.3855L23.5971 27.8859V28.3316L23.4923 28.4364L23.5971 28.5411V28.9869L23.3855 29.1984H22.5927V29.1943ZM22.8967 28.2967H23.2561L23.2931 28.2597V27.9783L23.2602 27.9455H22.8967V28.2946V28.2967ZM22.8967 28.9211H23.2602L23.2931 28.8883V28.6069L23.2561 28.5699H22.8967V28.9191V28.9211Z" fill="white"/>
<path d="M24.5543 29.1944L24.3428 28.9829V27.8839L24.5543 27.6724H25.1664L25.378 27.8839V28.9829L25.1664 29.1944H24.5543ZM24.6796 28.9212H25.0412L25.074 28.8884V27.9805L25.0412 27.9476H24.6796L24.6468 27.9805V28.8884L24.6796 28.9212Z" fill="white"/>
<path d="M26.329 29.1944L26.1174 28.9829V27.6724H26.4214V28.8863L26.4543 28.9192H26.8158L26.8487 28.8863V27.6724H27.1527V28.9829L26.9411 29.1944H26.329Z" fill="white"/>
<path d="M27.9004 29.1943V27.6743H28.6933L28.9048 27.8859V28.5288L28.7775 28.6562L28.9192 29.1943H28.607L28.4837 28.7219H28.2085V29.1943H27.9045H27.9004ZM28.2044 28.4487H28.568L28.6008 28.4158V27.9783L28.568 27.9455H28.2044V28.4466V28.4487Z" fill="white"/>
<path d="M29.6648 29.1943V27.6743H29.9934L30.396 28.3583V27.6743H30.7V29.1943H30.396V28.9047L29.9708 28.1899V29.1943H29.6668H29.6648Z" fill="white"/>
<path d="M31.4622 29.1943V27.6743H32.3433V27.9475H31.7662V28.2967H32.177V28.5699H31.7662V28.9191H32.3433V29.1923H31.4622V29.1943Z" fill="white"/>
<path d="M36.059 28.3071C36.1823 28.3071 36.3035 28.3174 36.4206 28.3379V23.478C36.2213 23.9669 35.9913 24.4414 35.7345 24.8974V28.3092H36.059V28.3071Z" fill="#0054FF"/>
<path d="M25.7785 37.2771H24.2072L24.9918 38.3103L25.7785 37.2771Z" fill="#0054FF"/>
<path d="M31.6244 37.2771L28.8986 39.1483L27.0459 38.908L27.5512 40.0706L25 41.8207L22.4489 40.0706L22.9542 38.908L21.1014 39.1483L18.3757 37.2771H17.1638L25 42.6526L32.8363 37.2771H31.6244Z" fill="#0054FF"/>
<path d="M14.2655 28.307V24.8952C14.0088 24.4392 13.7787 23.9667 13.5795 23.4758V28.307H14.2655Z" fill="#0054FF"/>
</svg>
