<svg width="50" height="50" viewBox="0 0 50 50" fill="none" xmlns="http://www.w3.org/2000/svg">
<path d="M44 24.9938C44.0012 28.7522 42.8878 32.4265 40.8005 35.552C38.7132 38.6774 35.7459 41.1137 32.2739 42.5525C28.8019 43.9913 24.9811 44.3681 21.2949 43.6352C17.6087 42.9023 14.2226 41.0926 11.565 38.4351C8.90747 35.7775 7.09776 32.3915 6.36481 28.7053C5.63187 25.0191 6.00862 21.1983 7.44742 17.7263C8.88622 14.2542 11.3224 11.2869 14.4479 9.1996C17.5733 7.1123 21.2476 5.99882 25.006 6C30.043 6.0017 34.8731 8.00336 38.4348 11.565C41.9965 15.1267 43.9983 19.9568 44 24.9938Z" fill="#231F20"/>
<path d="M43.2494 24.9938C43.2507 28.604 42.1813 32.1335 40.1764 35.1359C38.1715 38.1382 35.3211 40.4785 31.986 41.8606C28.6508 43.2428 24.9806 43.6048 21.4397 42.9007C17.8988 42.1967 14.6462 40.4583 12.0935 37.9055C9.54068 35.3526 7.80238 32.1 7.09845 28.5591C6.39451 25.0181 6.75657 21.348 8.13883 18.0128C9.52108 14.6777 11.8614 11.8274 14.8638 9.8226C17.8662 7.81777 21.3958 6.74843 25.006 6.74985C29.8437 6.75261 34.4825 8.67564 37.9032 12.0965C41.3239 15.5173 43.2468 20.1561 43.2494 24.9938Z" fill="white"/>
<path d="M12.4185 18.8121L10.0801 17.2303L11.0024 15.8718C11.368 15.3275 11.9236 15.1932 12.4754 15.5648L13.9345 16.5576L12.4185 18.8121ZM11.9821 16.2694C11.9456 16.2394 11.9028 16.218 11.8569 16.2068C11.811 16.1956 11.7632 16.1949 11.717 16.2047C11.6708 16.2145 11.6274 16.2346 11.59 16.2635C11.5527 16.2924 11.5223 16.3293 11.5011 16.3716L11.1369 16.9161L12.3161 17.7171L12.8855 16.8839L11.9821 16.2694Z" fill="#231F20"/>
<path d="M13.3794 15.3725L12.744 14.7833L12.4367 15.1219L11.9237 14.6556L12.8094 13.6811L13.9559 14.7321L13.3794 15.3725Z" fill="#231F20"/>
<path d="M16.1077 14.4881L15.4535 15.0397L14.6855 12.9123L13.6099 13.8089L12.706 12.7463L13.3586 12.2015L13.8068 12.7398L15.0957 11.6569L16.1077 14.4881Z" fill="#231F20"/>
<path d="M18.9131 9.51671C19.4064 10.8116 20.0348 12.1183 18.4653 12.9253L17.114 13.6366L15.5124 11.2985L16.2615 10.914L16.9082 11.862L16.9141 11.8494C16.9652 11.8317 17.012 11.8038 17.0519 11.7674C17.0918 11.731 17.1238 11.6869 17.146 11.6377C17.1683 11.5884 17.1802 11.5352 17.1812 11.4812C17.1821 11.4273 17.1721 11.3736 17.1516 11.3237C17.0631 11.0802 16.9607 10.8368 16.8572 10.5934L17.6009 10.2092C17.684 10.4271 17.7785 10.6315 17.8562 10.8368C18.1189 11.4781 17.9908 11.8746 17.3837 12.195L17.1907 12.2977L17.4584 12.6819L18.1066 12.3363C18.7211 12.0159 18.729 11.3108 18.497 10.7478L18.1571 9.92736L18.9131 9.51671Z" fill="#231F20"/>
<path d="M20.7849 11.9773L20.195 9.94023L19.7586 10.0552L19.5671 9.38937L20.829 9.02464L21.6167 11.734L20.7849 11.9773Z" fill="#231F20"/>
<path d="M23.1154 11.4652L22.866 9.69067C22.8631 9.64422 22.8497 9.59903 22.8269 9.55848C22.804 9.51794 22.7723 9.48309 22.7341 9.45655C22.6959 9.43001 22.6521 9.41246 22.6062 9.40523C22.5602 9.398 22.5132 9.40126 22.4686 9.41479L21.4445 9.55605L21.3415 8.87053L22.5072 8.69836C23.148 8.614 23.6215 8.92793 23.7111 9.58797L23.9689 11.3366L23.1154 11.4652Z" fill="#231F20"/>
<path d="M24.6542 10.0943L24.6408 9.22922L24.1856 9.23567L24.1808 8.5381L25.4928 8.51857L25.5121 10.0818L24.6542 10.0943Z" fill="#231F20"/>
<path d="M28.8999 11.9256L28.0672 11.696L29.3868 9.85065L28.0361 9.47893L28.4062 8.14612L29.2141 8.35786L29.035 9.03L30.6496 9.48502L28.8999 11.9256Z" fill="#231F20"/>
<path d="M33.1096 11.9899C32.6361 12.8229 31.9954 13.2455 31.0726 12.7717L29.887 12.1822L30.2072 11.5674L30.6431 11.7851L31.13 9.6585L31.9306 10.0553L31.3601 12.1695L31.4056 12.195C31.7891 12.3875 32.0845 12.0417 32.2566 11.7339L32.9038 10.5422L33.6856 10.9403L33.1096 11.9899Z" fill="#231F20"/>
<path d="M32.8523 13.8229L34.0963 12.1055L33.7236 11.8366L34.1344 11.2725L35.2046 12.0415L33.5509 14.3213L32.8523 13.8229Z" fill="#231F20"/>
<path d="M33.9805 14.6163L34.4733 14.1297L35.7043 15.3597L36.4985 14.5656C36.6647 14.4052 36.6464 14.2833 36.4856 14.1297L36.0878 13.7323L35.4995 14.3098L34.8909 13.7071L35.9799 12.6304L37.1392 13.7902C37.587 14.2516 37.6132 14.6682 37.1516 15.1287L35.8053 16.4547L33.9805 14.6163Z" fill="#231F20"/>
<path d="M36.0497 16.7565L37.3183 15.9112L37.7924 16.6278L36.5237 17.4735L36.0497 16.7565ZM37.017 18.2167L38.7839 17.0502L37.8181 15.5844L38.4079 15.1932L39.8428 17.3777L37.4846 18.9346L37.017 18.2167Z" fill="#231F20"/>
<path d="M9.80943 31.4966L9.61102 30.9907L10.4388 30.67L10.0543 29.6577L9.234 29.9655L9.03509 29.4659L11.0786 28.684L11.2715 29.1971L10.4517 29.504L10.8351 30.5293L11.6555 30.2212L11.8484 30.7208L9.80943 31.4966Z" fill="#231F20"/>
<path d="M11.2334 34.0774L10.9371 33.5661L11.226 33.194L10.7396 32.3422L10.2849 32.4127L9.99599 31.9258L12.322 31.5923L12.6426 32.1436L11.2334 34.0774ZM12.0399 32.1371L11.1429 32.2843L11.4754 32.8607L12.0399 32.1371Z" fill="#231F20"/>
<path d="M13.7435 33.7442C14.0453 34.1425 13.9118 34.5264 13.6673 34.706C13.5951 34.7625 13.512 34.8034 13.4231 34.826C13.3342 34.8486 13.2417 34.8525 13.1512 34.8374C13.0608 34.8222 12.9745 34.7884 12.8978 34.7381C12.8212 34.6879 12.7558 34.6222 12.7059 34.5452L12.4496 34.2066L11.751 34.7313L11.4239 34.3078L13.1547 32.9762L13.7435 33.7442ZM12.7564 33.9564L12.9103 34.1551C13.0706 34.3466 13.1933 34.3728 13.321 34.2699C13.4753 34.1551 13.4625 34.0331 13.2824 33.7964L13.1607 33.6428L12.7564 33.9564Z" fill="#231F20"/>
<path d="M13.6604 36.9348C13.0914 36.3836 13.1418 35.6662 13.5253 35.2627C13.8989 34.8716 14.6084 34.7442 15.2116 35.3077C15.7999 35.8785 15.7044 36.6024 15.3447 36.9863C14.9548 37.3831 14.2373 37.4737 13.6604 36.9348ZM14.8904 35.641C14.7925 35.5548 14.6714 35.4993 14.5422 35.4815C14.4129 35.4637 14.2813 35.4843 14.1637 35.5408C14.0462 35.5973 13.9478 35.6872 13.8809 35.7992C13.8141 35.9112 13.7817 36.0404 13.7878 36.1707C13.7938 36.301 13.8381 36.4266 13.9151 36.5319C13.9921 36.6372 14.0984 36.7175 14.2208 36.7628C14.3431 36.8081 14.4761 36.8164 14.6031 36.7866C14.7301 36.7568 14.8455 36.6903 14.935 36.5954C15.0002 36.5327 15.0513 36.4568 15.0848 36.3728C15.1183 36.2887 15.1335 36.1985 15.1293 36.1081C15.1251 36.0177 15.1016 35.9293 15.0604 35.8487C15.0192 35.7681 14.9612 35.6973 14.8904 35.641Z" fill="#231F20"/>
<path d="M16.3961 39.0357L15.0834 38.1135L16.3194 36.3332L17.6266 37.2288L17.3941 37.5633L16.5366 36.9606L16.2734 37.3386L17.0947 37.9091L16.8636 38.2352L16.0502 37.6716L15.7544 38.1011L16.6252 38.7028L16.3961 39.0357Z" fill="#231F20"/>
<path d="M18.3762 40.0986L16.8884 39.3307L17.9018 37.396L18.3827 37.6463L17.5613 39.2287L18.5553 39.7403L18.3762 40.0986Z" fill="#231F20"/>
<path d="M20.1233 40.4959C20.0965 40.6109 20.0464 40.7192 19.9761 40.8141C19.9058 40.9089 19.8168 40.9884 19.7146 41.0476C19.5286 41.1366 19.3164 41.1366 18.9769 40.9961L19.112 40.5864C19.3485 40.7141 19.5157 40.5988 19.6053 40.336L20.2451 38.446L20.7577 38.6251L20.1233 40.4959Z" fill="#231F20"/>
<path d="M22.245 41.2771L20.6755 40.9259L21.1624 38.7983L22.7067 39.1505L22.6221 39.5345L21.5983 39.3109L21.4954 39.7532L22.4686 39.9778L22.3801 40.3687L21.4128 40.151L21.2901 40.6498L22.3405 40.8942L22.245 41.2771Z" fill="#231F20"/>
<path d="M23.9545 39.2411C24.4087 39.2861 24.6473 39.6127 24.6225 39.9333C24.6127 40.0492 24.5674 40.1593 24.4928 40.2486C24.4181 40.3379 24.3178 40.4019 24.2054 40.432C24.4162 40.5597 24.4617 40.8427 24.717 41.4958L24.1143 41.4572C23.9293 40.9704 23.8729 40.5419 23.571 40.5157L23.4221 40.5092L23.3464 41.3929L22.8017 41.3425L22.9808 39.1644L23.9545 39.2411ZM23.4617 40.1055L23.7442 40.1312C23.8977 40.1371 24.0387 40.0867 24.0569 39.9066C24.0768 39.7403 23.9818 39.6503 23.7759 39.6245L23.4944 39.6127L23.4617 40.1055Z" fill="#231F20"/>
<path d="M27.1009 39.202L27.1781 40.439C27.2355 41.1624 26.7545 41.4444 26.1583 41.482C25.525 41.5345 25.0445 41.2643 25.006 40.5924L24.9154 39.3559L25.4617 39.3109L25.5433 40.5736C25.5472 40.6426 25.5655 40.7101 25.597 40.7716C25.6286 40.8331 25.6727 40.8873 25.7265 40.9307C25.7803 40.9741 25.8426 41.0058 25.9094 41.0236C25.9762 41.0414 26.046 41.0451 26.1143 41.0342C26.1879 41.0359 26.261 41.0216 26.3285 40.9924C26.3961 40.9631 26.4566 40.9197 26.5058 40.865C26.555 40.8102 26.5919 40.7455 26.6138 40.6753C26.6357 40.605 26.6422 40.5308 26.6328 40.4578L26.5502 39.2411L27.1009 39.202Z" fill="#231F20"/>
<path d="M28.9717 39.3559C28.7392 39.2954 28.4969 39.2824 28.2592 39.3178C28.0548 39.3623 27.9519 39.4583 27.9786 39.5671C28.0548 39.8818 29.1186 39.5483 29.2849 40.2915C29.368 40.7012 29.0796 41.008 28.613 41.1238C28.3411 41.1893 28.0562 41.1761 27.7916 41.0857L27.6907 40.6369C28.0425 40.7656 28.2468 40.7972 28.4784 40.7388C28.6833 40.6943 28.7733 40.5988 28.7466 40.4707C28.6704 40.1243 27.6195 40.4959 27.4398 39.7279C27.3636 39.3623 27.6254 39.0476 28.1177 38.9328C28.3678 38.8793 28.6268 38.884 28.8747 38.9467L28.9717 39.3559Z" fill="#231F20"/>
<path d="M32.0399 39.9452L31.4947 40.151L31.1681 39.8175L30.2591 40.1629L30.2656 40.6369L29.7198 40.8427L29.7659 38.485L30.3477 38.254L32.0399 39.9452ZM30.2527 38.8497L30.2591 39.7532L30.8871 39.5167L30.2527 38.8497Z" fill="#231F20"/>
<path d="M33.8459 38.8754L32.4046 39.7027L31.3215 37.8062L31.7955 37.5252L32.6742 39.0867L33.6534 38.536L33.8459 38.8754Z" fill="#231F20"/>
<path d="M35.5381 37.6523L34.2497 38.6251L32.9375 36.8839L34.2042 35.9235L34.4481 36.2431L33.6158 36.8715L33.8904 37.2362L34.6851 36.6399L34.9226 36.9546L34.1274 37.5632L34.4416 37.9724L35.2936 37.3316L35.5381 37.6523Z" fill="#231F20"/>
<path d="M35.7419 34.3918L36.0745 34.0522L37.6385 35.5705L37.261 35.9616L36.2803 35.0133L36.3634 35.9235L36.306 35.974L35.4095 35.9235L36.3827 36.8715L36.0052 37.2614L34.4357 35.7439L34.7682 35.398L35.8389 35.4613L35.7419 34.3918Z" fill="#231F20"/>
<path d="M37.1709 32.4632C37.4465 32.0287 37.8181 32.0152 38.0225 32.1562C38.1004 32.2084 38.1614 32.2824 38.1979 32.3689C38.2344 32.4554 38.2448 32.5507 38.2278 32.643C38.314 32.5406 38.4353 32.474 38.568 32.4563C38.7007 32.4386 38.8352 32.471 38.9452 32.5473C39.156 32.6819 39.4133 33.0079 39.0734 33.5391L38.5093 34.4369L36.6647 33.2581L37.1709 32.4632ZM37.6895 33.2645L37.8428 33.027C37.8642 33.0006 37.8799 32.97 37.889 32.9373C37.8981 32.9045 37.9003 32.8703 37.8956 32.8366C37.8908 32.803 37.8792 32.7707 37.8615 32.7417C37.8437 32.7128 37.8202 32.6877 37.7924 32.6683C37.7631 32.6495 37.7301 32.6372 37.6957 32.6323C37.6613 32.6273 37.6262 32.6298 37.5928 32.6396C37.5594 32.6493 37.5285 32.6661 37.5022 32.6888C37.4758 32.7115 37.4547 32.7396 37.4401 32.7712L37.2936 33.0144L37.6895 33.2645ZM38.4583 33.7575L38.6186 33.5013C38.7839 33.2454 38.7661 33.1173 38.6123 33.0144C38.4831 32.9248 38.3302 33.0015 38.2278 33.1623L38.0224 33.4758L38.4583 33.7575Z" fill="#231F20"/>
<path d="M39.6825 31.9773C39.7467 32.0115 39.7951 32.0693 39.8175 32.1386C39.84 32.2078 39.8346 32.283 39.8027 32.3484C39.7861 32.3814 39.763 32.4106 39.7348 32.4344C39.7066 32.4582 39.6738 32.476 39.6385 32.4867C39.6032 32.4974 39.5661 32.5009 39.5294 32.4968C39.4927 32.4928 39.4573 32.4814 39.4251 32.4632C39.3931 32.4463 39.3648 32.4234 39.3417 32.3955C39.3186 32.3677 39.3012 32.3356 39.2905 32.3011C39.2798 32.2665 39.2761 32.2302 39.2795 32.1942C39.2828 32.1582 39.2933 32.1232 39.3102 32.0912C39.3272 32.0593 39.3502 32.031 39.3781 32.0079C39.406 31.9849 39.4381 31.9676 39.4727 31.957C39.5073 31.9464 39.5436 31.9428 39.5796 31.9463C39.6156 31.9497 39.6506 31.9603 39.6825 31.9773Z" fill="#231F20"/>
<path d="M40.6102 29.9014C40.6493 30.1993 40.6076 30.5023 40.4895 30.7786C40.1753 31.5671 39.4959 31.7459 38.9769 31.5282C38.4395 31.3106 38.1189 30.6567 38.4331 29.8888C38.5291 29.6302 38.6955 29.4038 38.9136 29.2349L39.3559 29.4209C39.1425 29.5768 38.9745 29.7866 38.869 30.0288C38.6948 30.4523 38.823 30.8618 39.1748 31.0097C39.534 31.1633 39.9249 30.9654 40.0981 30.5483C40.1879 30.2826 40.2143 29.9995 40.1753 29.7218L40.6102 29.9014Z" fill="#231F20"/>
<path d="M40.8348 29.0105C40.906 29.0331 40.9655 29.0829 41.0002 29.149C41.035 29.2152 41.0422 29.2924 41.0204 29.3638C41.0092 29.3989 40.9912 29.4313 40.9674 29.4593C40.9436 29.4873 40.9144 29.5102 40.8816 29.5268C40.8488 29.5434 40.813 29.5533 40.7764 29.5559C40.7397 29.5585 40.7029 29.5537 40.6681 29.5419C40.633 29.5321 40.6004 29.5151 40.5722 29.4921C40.5439 29.4691 40.5207 29.4406 40.504 29.4082C40.4872 29.3759 40.4773 29.3405 40.4748 29.3042C40.4723 29.2678 40.4773 29.2314 40.4894 29.1971C40.5112 29.127 40.5596 29.0683 40.6241 29.0334C40.6887 28.9986 40.7643 28.9903 40.8348 29.0105Z" fill="#231F20"/>
<path d="M42.2633 23.1178V22.7009L42.3276 22.6047C42.481 22.3932 42.5067 21.9449 42.3593 21.8682C42.3264 21.8525 42.29 21.8461 42.2537 21.8495C42.2175 21.8529 42.1828 21.866 42.1535 21.8875C42.0736 21.9672 42.0166 22.0669 41.9886 22.1762C41.9606 22.2855 41.9625 22.4004 41.9942 22.5087C42.0386 22.6237 42.0386 22.598 42.0065 22.9829C41.9796 23.2088 41.9841 23.4372 42.0198 23.6618C42.0718 24.1358 42.0654 24.4307 42.0198 24.5267C41.9832 24.5726 41.9375 24.6105 41.8856 24.6381C41.8336 24.6656 41.7766 24.6822 41.718 24.6868C41.6101 24.6996 41.6101 24.6996 41.5394 24.6098C41.4827 24.5526 41.4206 24.501 41.3539 24.4557C41.0526 24.2768 40.9303 24.0336 40.9303 23.6296C40.9322 23.3982 40.987 23.1702 41.0907 22.9632C41.1378 22.8373 41.1784 22.709 41.2124 22.579C41.2521 22.3504 41.2545 22.1168 41.2193 21.8875C41.158 21.6596 41.0485 21.4475 40.8982 21.2655C40.816 21.1507 40.7908 21.0993 40.7908 21.0478C40.7908 20.9135 40.6032 20.8561 40.4563 20.9583C40.3412 21.0001 40.2236 21.0345 40.104 21.0612C39.824 21.1253 39.7898 21.1253 39.7646 21.1896C39.7398 21.2532 39.6548 21.2923 39.5157 21.3046C39.4678 21.3013 39.4202 21.3149 39.3811 21.343C39.3704 21.3831 39.3699 21.4253 39.3799 21.4656C39.3898 21.5059 39.4098 21.5431 39.438 21.5736C39.465 21.6124 39.4846 21.6558 39.4959 21.7017C39.5157 21.7848 39.534 21.7913 39.6176 21.7524C39.7839 21.6821 39.9061 21.7331 39.8992 21.8617C39.8942 21.9325 39.8873 21.9449 39.8091 21.9642C39.7623 21.9821 39.7109 21.9844 39.6627 21.9706C39.5795 21.9387 39.5528 21.9449 39.5528 22.0344C39.5528 22.1242 39.5726 22.1502 39.6429 22.1502C39.7398 22.1502 39.7398 22.1885 39.6548 22.2905C39.6259 22.3206 39.6059 22.3582 39.597 22.3989C39.5881 22.4397 39.5907 22.4821 39.6043 22.5216C39.6107 22.5594 39.63 22.5594 39.6548 22.5594C39.7017 22.5535 39.7017 22.5854 39.6696 22.6374C39.636 22.6816 39.6043 22.6554 39.5795 22.5471C39.5598 22.4706 39.5222 22.4446 39.5029 22.4956C39.4959 22.5087 39.4831 22.598 39.4637 22.6757C39.444 22.8031 39.444 22.842 39.4637 22.8607C39.4831 22.8798 39.489 22.8798 39.5222 22.8543C39.5598 22.8291 39.5598 22.8291 39.5474 22.8607C39.5305 22.8996 39.5198 22.9408 39.5157 22.9829C39.4959 23.0723 39.4831 23.0851 39.4311 23.0084C39.4069 22.9698 39.4068 22.9317 39.4133 22.7776L39.4311 22.598L39.2718 22.5216C39.1005 22.4359 38.9412 22.3283 38.7978 22.2014C38.5093 21.9835 38.4964 21.9578 38.4964 21.8875C38.5 21.8446 38.4876 21.802 38.4617 21.7677C38.4358 21.7334 38.3981 21.7099 38.3559 21.7017H38.3495C38.2535 21.6821 38.0808 21.6312 37.9779 21.7017C37.9407 21.7257 37.9092 21.7576 37.8859 21.7952C37.8625 21.8328 37.8478 21.8752 37.8428 21.9192C37.8364 21.9835 37.8498 21.9835 37.8498 21.9835C37.8498 21.9835 37.8691 21.9964 37.9072 21.9449C37.9239 21.9313 37.9436 21.9218 37.9647 21.9173C37.9857 21.9129 38.0076 21.9135 38.0284 21.9192C38.0488 21.933 38.0666 21.9504 38.0808 21.9706V21.9835C38.0464 21.9825 38.0119 21.9847 37.9779 21.9901C37.9416 22.0054 37.91 22.0299 37.8862 22.0614C37.8625 22.0928 37.8475 22.1299 37.8428 22.169C37.8364 22.2266 37.8498 22.2395 37.8498 22.2395C37.8498 22.2395 37.8691 22.2526 37.9072 22.2014C37.922 22.1848 37.9417 22.1733 37.9635 22.1686C37.9853 22.1639 38.008 22.1663 38.0284 22.1755C38.043 22.1918 38.0609 22.2049 38.0808 22.214C38.0451 22.2194 38.0103 22.2302 37.9779 22.2462C37.9451 22.2649 37.9177 22.2919 37.8986 22.3245C37.8795 22.3572 37.8693 22.3942 37.8691 22.432C37.8691 22.5023 37.8814 22.5023 37.8814 22.5023C37.8814 22.5023 37.9072 22.5216 37.9329 22.4706C37.9454 22.4508 37.9636 22.4352 37.9852 22.426C38.0068 22.4168 38.0306 22.4144 38.0536 22.4191C38.0912 22.4451 38.1259 22.4752 38.157 22.5087V22.5216H38.1629C38.1789 22.5474 38.2018 22.5682 38.229 22.5817C38.2562 22.5952 38.2866 22.6009 38.3168 22.598C38.4079 22.598 38.4262 22.598 38.6627 22.8095C39.0027 23.0977 39.1748 23.2264 39.2337 23.2264C39.2687 23.2241 39.302 23.2106 39.3287 23.1878C39.3935 23.1359 39.4252 23.1687 39.3559 23.2202C39.1247 23.4029 38.8828 23.5718 38.6315 23.7259C38.5217 23.7766 38.5093 23.7766 38.4583 23.7259C38.434 23.7003 38.4058 23.6786 38.3747 23.6618C38.3259 23.6436 38.274 23.6348 38.2218 23.6361C38.1295 23.6295 38.0374 23.6521 37.9586 23.7006C37.9249 23.7288 37.8977 23.7639 37.879 23.8036C37.8602 23.8433 37.8502 23.8866 37.8498 23.9305C37.8557 23.9948 37.8691 23.9948 37.8691 23.9948C37.8691 23.9948 37.8943 24.0079 37.92 23.9567C37.9354 23.9405 37.9544 23.928 37.9754 23.9204C37.9965 23.9127 38.019 23.91 38.0413 23.9124C38.0753 23.9283 38.1078 23.9474 38.1382 23.9696C38.0841 23.9593 38.0282 23.9659 37.9779 23.9884C37.9441 24.0092 37.9163 24.0384 37.8972 24.0733C37.8781 24.1081 37.8684 24.1473 37.8691 24.187C37.8691 24.2506 37.8814 24.2506 37.8814 24.2506C37.8814 24.2506 37.9072 24.2645 37.9329 24.2125C37.9482 24.1966 37.9673 24.1847 37.9884 24.178C38.0095 24.1713 38.0319 24.17 38.0536 24.1742C38.0808 24.1742 38.1249 24.219 38.1447 24.2387C38.0784 24.2314 38.0119 24.2496 37.9586 24.2897C37.9248 24.311 37.8982 24.342 37.8822 24.3786C37.8663 24.4152 37.8617 24.4558 37.8691 24.495C37.8755 24.5529 37.8943 24.5529 37.8943 24.5529C37.8943 24.5529 37.92 24.5589 37.9398 24.5079C37.9586 24.4685 38.0536 24.4557 38.0937 24.4685C38.1345 24.4915 38.1818 24.5002 38.2281 24.4934C38.2744 24.4865 38.3171 24.4645 38.3495 24.4307C38.3777 24.4167 38.4082 24.408 38.4396 24.4048C38.4798 24.4083 38.5202 24.4006 38.5563 24.3825C38.5924 24.3644 38.6227 24.3366 38.6439 24.3023C38.6692 24.2645 38.7404 24.2254 38.9067 24.1482C39.1668 24.0322 39.4193 23.8998 39.6627 23.7519C39.7142 23.7259 39.7142 23.7259 39.7142 23.7519C39.7142 23.7766 39.6825 23.8155 39.636 23.8409C39.5855 23.8795 39.5529 23.905 39.5529 23.9124C39.6019 24.0426 39.6691 24.1653 39.7523 24.2768C39.9147 24.4452 40.1003 24.5895 40.3034 24.7056C40.3584 24.7337 40.4097 24.7683 40.4563 24.8087C40.4499 24.8087 40.3544 24.8792 40.2268 24.9555C39.8921 25.1774 39.5898 25.4448 39.3287 25.7499C39.2777 25.8785 39.3035 26.0702 39.4069 26.3718C39.4509 26.5059 39.489 26.6345 39.496 26.659C39.5222 26.7109 39.438 26.775 39.3287 26.775C39.2703 26.7745 39.2124 26.7859 39.1586 26.8084C39.1047 26.831 39.056 26.8643 39.0154 26.9062C38.9748 26.9482 38.9432 26.998 38.9224 27.0526C38.9017 27.1072 38.8923 27.1654 38.8948 27.2238C38.8948 27.2938 38.9136 27.3002 39.0027 27.2367C39.0249 27.2199 39.052 27.2109 39.0798 27.2112C39.1056 27.2112 39.1244 27.1852 39.1372 27.1595C39.162 27.108 39.2075 27.0632 39.1956 27.1152C39.1496 27.275 39.162 27.3134 39.253 27.249C39.2875 27.2245 39.3265 27.2071 39.3678 27.1979C39.4146 27.1913 39.4575 27.1684 39.489 27.1333C39.5598 27.0697 39.5796 27.0697 39.5341 27.1471C39.496 27.2174 39.496 27.2619 39.5474 27.2367C39.5598 27.2367 39.636 27.2174 39.7018 27.2112C39.7603 27.2029 39.818 27.1899 39.8745 27.1724C39.9598 27.1209 40.0218 27.0382 40.0472 26.9418C40.0471 26.902 40.0557 26.8627 40.0724 26.8265C40.0912 26.7624 40.0912 26.737 40.0472 26.6212C39.9695 26.3782 39.9898 26.2753 40.1506 26.1219C40.2417 26.0346 40.3541 25.9726 40.4766 25.9423C40.6246 25.8914 40.631 25.8785 40.585 25.7627C40.5399 25.6737 40.5207 25.5583 40.5593 25.5583C40.5684 25.5661 40.5756 25.5759 40.5801 25.5871C40.5846 25.5982 40.5862 25.6102 40.585 25.6222C40.6783 25.8601 40.8501 26.059 41.0718 26.186C41.1348 26.228 41.1944 26.2749 41.25 26.3262C41.278 26.3867 41.2938 26.4521 41.2965 26.5187C41.3094 26.7369 41.2836 26.7624 41.1045 26.8008C40.9115 26.8265 40.8859 26.8515 40.8413 26.9099C40.7877 27.0221 40.7571 27.1439 40.7512 27.2681C40.8533 27.2442 40.9507 27.2033 41.0392 27.1471L41.0778 27.0952L41.065 27.1979L41.0526 27.3003L41.0971 27.2681C41.1345 27.2474 41.1766 27.2366 41.2193 27.2367C41.3094 27.2238 41.3287 27.2174 41.3668 27.1471C41.4044 27.0632 41.4172 27.0887 41.3786 27.1724C41.3727 27.2174 41.3598 27.2619 41.3727 27.2619C41.3786 27.2681 41.4108 27.2619 41.4568 27.2367C41.5066 27.2213 41.5581 27.2127 41.6102 27.2112C41.7052 27.2112 41.7705 27.1595 41.8339 27.0314C41.86 26.9659 41.8621 26.8934 41.8398 26.8265C41.8225 26.7077 41.8185 26.5873 41.8279 26.4676C41.855 26.339 41.8346 26.205 41.7705 26.0902C41.6942 25.9405 41.6485 25.7771 41.6359 25.6096C41.6419 25.5354 41.6567 25.4623 41.6799 25.3916C41.7018 25.3167 41.7128 25.239 41.7126 25.161V25.0574L41.815 25.0393C41.9116 25.0301 42.0049 24.9994 42.0881 24.9496C42.1713 24.8997 42.2423 24.8319 42.296 24.7511C42.386 24.5713 42.386 24.1997 42.3024 23.7133C42.2704 23.5165 42.2573 23.3171 42.2633 23.1178ZM40.9699 22.451C40.9699 22.432 40.9952 22.432 41.0204 22.451C41.0526 22.4575 41.0718 22.4827 41.0649 22.4956C41.0562 22.5017 41.046 22.5054 41.0354 22.5063C41.0248 22.5073 41.0142 22.5054 41.0045 22.5009C40.9949 22.4963 40.9866 22.4893 40.9805 22.4806C40.9744 22.4719 40.9708 22.4617 40.9699 22.451ZM41.149 22.1121C41.1639 22.1275 41.173 22.1477 41.1748 22.169C41.1748 22.2014 41.149 22.2014 41.1297 22.1626C41.1045 22.1121 41.1174 22.0864 41.149 22.1121ZM41.0778 22.7588C41.0649 22.7776 41.0526 22.7648 41.0392 22.7524C41.0204 22.7009 41.0526 22.6757 41.0778 22.7071C41.097 22.7267 41.097 22.7395 41.0778 22.7588ZM41.0337 21.65C41.0526 21.6628 41.0778 21.6762 41.0778 21.6886C41.0778 21.7331 41.0392 21.7272 41.0139 21.6821C40.9952 21.65 40.9952 21.6378 41.0337 21.65ZM40.8917 21.7524C40.9057 21.7759 40.9125 21.803 40.9115 21.8303C40.9115 21.9065 40.9447 21.9706 40.9952 21.9706C41.0085 21.9706 41.014 21.9835 41.014 22.0085C40.9952 22.0666 40.9699 22.0473 40.9175 21.9706C40.867 21.8875 40.8482 21.7272 40.8917 21.7524ZM40.8161 21.4323C40.8348 21.4323 40.8482 21.4456 40.8482 21.452C40.8482 21.4708 40.8413 21.477 40.8284 21.477C40.8161 21.477 40.8091 21.4708 40.7967 21.452C40.7908 21.4456 40.8032 21.4323 40.8161 21.4323ZM40.7908 22.0218C40.7967 22.0085 40.7908 22.0408 40.7908 22.0864C40.7757 22.1169 40.7694 22.151 40.7727 22.1849C40.7759 22.2187 40.7885 22.251 40.8091 22.2781C40.8225 22.2969 40.8348 22.2969 40.8606 22.2781C40.8982 22.2462 40.8982 22.2781 40.8606 22.3553C40.8091 22.4575 40.7908 22.451 40.7453 22.2969C40.7265 22.2409 40.7265 22.1803 40.7453 22.1242C40.7551 22.088 40.7705 22.0534 40.7908 22.0218ZM40.7908 21.7913C40.7908 21.8549 40.7908 21.8549 40.7388 21.8041C40.7067 21.7788 40.6824 21.7449 40.6688 21.7063C40.6553 21.6677 40.653 21.626 40.6622 21.5862C40.6814 21.5548 40.6814 21.5609 40.6879 21.625C40.6879 21.6821 40.6938 21.7017 40.7388 21.7272C40.7522 21.7326 40.7639 21.7414 40.773 21.7526C40.7821 21.7638 40.7882 21.7771 40.7908 21.7913ZM40.5592 21.2467C40.6433 21.2017 40.6562 21.1896 40.6622 21.1186C40.6681 21.0095 40.7072 21.0221 40.7072 21.1252V21.2274L40.585 21.2782C40.3989 21.3679 40.3801 21.343 40.5592 21.2467ZM40.5464 21.6312C40.5335 21.6566 40.5207 21.6628 40.5078 21.6378C40.5018 21.6124 40.5399 21.5735 40.5592 21.5862C40.5589 21.602 40.5545 21.6175 40.5464 21.6312ZM40.4177 22.8419C40.4249 22.8504 40.4339 22.8571 40.4442 22.8615C40.4544 22.8659 40.4655 22.8678 40.4766 22.8672C40.5018 22.8607 40.4895 22.8672 40.4642 22.9189C40.4569 22.9451 40.4404 22.9678 40.4177 22.9829C40.379 22.9165 40.3573 22.8416 40.3544 22.7648C40.3667 22.7214 40.3815 22.6789 40.3989 22.6373C40.4247 22.5854 40.4306 22.573 40.4247 22.6047C40.3925 22.7648 40.3925 22.8157 40.4177 22.8419ZM40.4642 22.3489C40.458 22.3773 40.4414 22.4023 40.4177 22.4191C40.3801 22.4191 40.3544 22.2655 40.3672 22.1885L40.3925 22.1242L40.4059 22.2014C40.4177 22.2655 40.4247 22.2781 40.4563 22.2717C40.5078 22.2526 40.5078 22.2526 40.4642 22.3489ZM40.3098 21.8303C40.3172 21.8302 40.3243 21.8326 40.3301 21.8371C40.336 21.8415 40.3401 21.8478 40.342 21.8548C40.3544 21.881 40.3672 21.8875 40.3989 21.881C40.4306 21.8682 40.437 21.8682 40.4247 21.8939C40.4087 21.9169 40.3977 21.9431 40.3925 21.9706C40.3801 21.9901 40.3801 21.9901 40.3544 21.9642C40.3291 21.9191 40.296 21.8303 40.3098 21.8303ZM40.3291 22.573L40.2831 22.6373C40.2455 22.7267 40.2327 22.7267 40.2139 22.6757C40.1875 22.6105 40.183 22.5385 40.201 22.4706C40.2203 22.4446 40.2203 22.451 40.2267 22.5087C40.2327 22.5594 40.252 22.579 40.2831 22.579L40.3291 22.573ZM40.2643 22.214L40.2327 22.2655L40.1941 22.1952C40.1505 22.1121 40.1357 22.0408 40.1753 22.0218C40.1753 22.0085 40.1881 22.0344 40.1881 22.0728C40.1881 22.1435 40.2455 22.1885 40.2772 22.1371C40.2831 22.1121 40.296 22.1121 40.296 22.1371C40.2889 22.164 40.2783 22.1899 40.2643 22.214ZM40.1505 21.8682C40.1894 21.8142 40.2173 21.7532 40.2327 21.6885C40.252 21.65 40.2584 21.6123 40.2703 21.6123C40.3291 21.6123 40.2584 21.7912 40.1753 21.8875C40.0724 21.9963 40.0471 21.9901 40.1505 21.8682ZM39.9833 22.2717C39.9962 22.2395 39.9962 22.2462 40.009 22.3172C40.0214 22.432 40.0407 22.4446 40.0912 22.3996C40.1298 22.3808 40.1298 22.3932 40.0981 22.451C40.0912 22.4827 40.0536 22.5216 40.0407 22.5216C39.9833 22.5342 39.9447 22.3681 39.9833 22.2717ZM39.8745 21.3813C39.824 21.4261 39.8151 21.4323 39.8092 21.4068C39.7839 21.3303 39.7967 21.3046 39.8616 21.3046C39.8942 21.3046 39.919 21.3175 39.919 21.3236C39.911 21.3473 39.8953 21.3676 39.8745 21.3813ZM39.7398 22.3288C39.7745 22.3236 39.8075 22.3104 39.8364 22.2905C39.919 22.2266 39.919 22.2395 39.8487 22.3288C39.7967 22.3995 39.7646 22.4191 39.7265 22.3932C39.7017 22.3681 39.7142 22.3172 39.7398 22.3288ZM39.7265 23.1116C39.7131 23.1533 39.7027 23.1958 39.6953 23.239C39.6953 23.3736 39.6107 23.2778 39.5726 23.1178C39.5586 23.0498 39.561 22.9795 39.5795 22.9126C39.6107 22.8157 39.6548 22.7267 39.6548 22.7588C39.6548 22.7647 39.6429 22.8157 39.636 22.8798C39.6107 22.9958 39.6176 23.1232 39.6548 23.1232C39.6627 23.1232 39.6889 23.1116 39.7201 23.0722L39.7646 23.0336L39.7265 23.1116ZM39.7839 22.598C39.8027 22.5342 39.824 22.4827 39.824 22.4827C39.8364 22.4827 39.824 22.547 39.824 22.6108C39.8151 22.7267 39.8151 22.7395 39.8552 22.7267C39.8942 22.7138 39.8992 22.7267 39.868 22.7907C39.8364 22.8934 39.8027 22.8934 39.7775 22.8031C39.7645 22.7703 39.7584 22.7351 39.7595 22.6999C39.7606 22.6646 39.7689 22.6299 39.7839 22.598ZM39.9447 23.3797C39.9318 23.4178 39.919 23.4562 39.919 23.4562C39.8992 23.4562 39.8616 23.3926 39.824 23.3221C39.8046 23.2761 39.7956 23.2264 39.7978 23.1765C39.7999 23.1266 39.8131 23.0778 39.8364 23.0336L39.8745 22.9443L39.868 23.0723C39.8487 23.2202 39.8873 23.3033 39.9447 23.2778C39.9897 23.2712 39.9962 23.2778 39.9447 23.3797ZM39.9695 22.7648C39.9962 22.6757 40.0214 22.6816 40.0214 22.8031C40.0214 22.9126 40.0659 22.9443 40.1238 22.8934C40.1505 22.8672 40.1436 22.887 40.111 22.9577C40.0986 22.993 40.0765 23.0241 40.0471 23.0473C40.015 23.0661 39.9576 22.8419 39.9695 22.7648ZM40.201 23.572C40.1884 23.6006 40.1798 23.6308 40.1753 23.6618C40.1505 23.7902 40.0471 23.5979 40.0471 23.4178C40.0471 23.2899 40.0724 23.2645 40.0783 23.3797C40.0783 23.4562 40.1298 23.5339 40.1881 23.5339C40.201 23.5339 40.2139 23.5465 40.201 23.572ZM40.1753 23.162C40.1629 23.136 40.1565 23.1077 40.1565 23.0789C40.1565 23.0501 40.1629 23.0217 40.1753 22.9958C40.201 22.8797 40.2267 22.8869 40.201 23.0084C40.1922 23.0337 40.1893 23.0608 40.1926 23.0875C40.196 23.1141 40.2055 23.1396 40.2203 23.162C40.2455 23.1877 40.2703 23.2137 40.2831 23.2006C40.3163 23.1877 40.3227 23.2006 40.296 23.2899C40.252 23.399 40.2203 23.3671 40.1753 23.162ZM40.4499 23.6489C40.437 23.6739 40.4246 23.7323 40.4058 23.7837L40.3801 23.8794L40.3356 23.8025C40.3056 23.758 40.2863 23.707 40.2795 23.6537C40.2726 23.6004 40.2783 23.5462 40.296 23.4955C40.3291 23.354 40.3544 23.3411 40.342 23.4826C40.3356 23.5848 40.3356 23.6232 40.3608 23.6489C40.3925 23.688 40.3925 23.688 40.4246 23.6489C40.4563 23.6101 40.4563 23.6101 40.4499 23.6489ZM40.5463 23.3671C40.5207 23.4762 40.5078 23.4698 40.4563 23.354C40.4403 23.3274 40.4297 23.2978 40.4253 23.267C40.4209 23.2363 40.4227 23.2049 40.4306 23.1749L40.4563 23.1177V23.1749C40.4563 23.2711 40.5018 23.3411 40.5335 23.3221C40.5592 23.3159 40.5592 23.3221 40.5463 23.3671ZM40.5399 22.0084V21.9387L40.5721 22.0084C40.5978 22.0665 40.6032 22.0727 40.6433 22.0472C40.6879 22.0218 40.6879 22.0344 40.6562 22.0864C40.585 22.1754 40.5399 22.1435 40.5399 22.0084ZM40.585 22.6757C40.5499 22.5576 40.5564 22.4311 40.6032 22.3172C40.6369 22.2395 40.6369 22.2395 40.6369 22.2781C40.6383 22.3189 40.6341 22.3598 40.6245 22.3995C40.585 22.5087 40.6033 22.5594 40.6622 22.5215C40.7195 22.4955 40.7195 22.547 40.6681 22.6046C40.6479 22.629 40.633 22.6575 40.6245 22.688C40.6102 22.7138 40.6032 22.7138 40.585 22.6757ZM40.6245 23.0722C40.6101 23.0349 40.6043 22.9948 40.6076 22.9549C40.6108 22.915 40.623 22.8764 40.6433 22.8419C40.6681 22.803 40.6814 22.7776 40.6681 22.803C40.6681 22.8157 40.6622 22.8797 40.6562 22.9189C40.6369 23.0084 40.6369 23.0084 40.6814 22.9958C40.7265 22.9698 40.7265 22.9698 40.6938 23.0473C40.6433 23.1358 40.6433 23.1358 40.6245 23.0722ZM40.7646 23.5272C40.7571 23.5532 40.7441 23.5774 40.7265 23.598C40.6869 23.5366 40.6647 23.4656 40.6622 23.3926C40.6622 23.3221 40.7388 23.1232 40.7453 23.1749C40.7429 23.2098 40.7366 23.2443 40.7265 23.2778C40.6938 23.3735 40.7195 23.4436 40.7646 23.4243C40.8161 23.4178 40.8161 23.4319 40.7646 23.5272ZM40.8284 22.8095C40.7769 22.8095 40.7769 22.6373 40.8225 22.5789C40.8482 22.547 40.8482 22.547 40.8413 22.6237C40.8284 22.7009 40.8284 22.7138 40.8606 22.7138C40.8982 22.7138 40.8982 22.7266 40.8606 22.7776C40.8522 22.7903 40.8412 22.8011 40.8284 22.8095ZM40.8982 23.1687C40.8771 23.0903 40.8818 23.0072 40.9115 22.9317C40.9303 22.8934 40.9303 22.906 40.9239 22.9829C40.9239 23.0473 40.9303 23.0722 40.9511 23.066C40.9699 23.066 40.9699 23.0661 40.9699 23.0722C40.9644 23.099 40.956 23.125 40.9447 23.1499C40.9239 23.1749 40.9115 23.1878 40.8982 23.1687Z" fill="#231F20"/>
<path d="M7.60016 23.7133C7.51114 24.1997 7.51114 24.5712 7.60659 24.7511C7.66 24.832 7.7309 24.9 7.81406 24.9498C7.89722 24.9997 7.99051 25.0303 8.08706 25.0393L8.1959 25.0574V25.161C8.18653 25.2388 8.19534 25.3177 8.22164 25.3916C8.24527 25.4622 8.26022 25.5354 8.26617 25.6095C8.25019 25.7764 8.20496 25.9391 8.13256 26.0902C8.06716 26.2045 8.04654 26.3389 8.0747 26.4675C8.08409 26.5873 8.07977 26.7077 8.06183 26.8265C8.04037 26.8935 8.04264 26.9658 8.06827 27.0314C8.13256 27.1595 8.1959 27.2112 8.29287 27.2112C8.345 27.2135 8.39666 27.222 8.44675 27.2367C8.48486 27.2619 8.52939 27.2681 8.52939 27.2619C8.54226 27.2619 8.52939 27.2173 8.5225 27.1724C8.48486 27.0887 8.50365 27.0632 8.53532 27.1471C8.57986 27.2173 8.59176 27.2238 8.68281 27.2367C8.72707 27.237 8.77063 27.2477 8.80994 27.2681L8.84956 27.3002L8.8372 27.1978L8.82433 27.0951L8.86243 27.1471C8.95046 27.2049 9.04843 27.2459 9.15138 27.2681C9.14543 27.1437 9.11428 27.0218 9.05983 26.9098C9.0158 26.8515 8.99057 26.8265 8.78623 26.8008C8.61797 26.7624 8.59177 26.7369 8.60611 26.5187C8.61136 26.4532 8.62448 26.3886 8.64517 26.3262C8.65804 26.3146 8.74017 26.2498 8.83122 26.186C9.0514 26.0591 9.22082 25.8599 9.31068 25.6222C9.31813 25.5836 9.32948 25.5583 9.34235 25.5583C9.37553 25.5583 9.36165 25.6736 9.32355 25.7627C9.27258 25.8785 9.27851 25.8914 9.42696 25.9423C9.5493 25.9731 9.66162 26.0349 9.75305 26.1219C9.91387 26.2753 9.93069 26.3782 9.85596 26.6211C9.80944 26.7369 9.80944 26.7624 9.83517 26.8265C9.84677 26.8596 9.85376 26.8941 9.85596 26.9291C9.85596 27.0056 9.97122 27.1659 10.0286 27.1723C10.085 27.1908 10.143 27.2038 10.2018 27.2112C10.2662 27.2173 10.3364 27.2366 10.3547 27.2366C10.4007 27.2619 10.4066 27.2173 10.369 27.1471C10.3225 27.0696 10.3478 27.0696 10.4106 27.1332C10.443 27.1691 10.4873 27.192 10.5353 27.1978C10.5789 27.2064 10.6203 27.2238 10.657 27.249C10.7396 27.3134 10.758 27.275 10.7075 27.1152C10.6956 27.0632 10.7396 27.108 10.7659 27.1595C10.7782 27.1852 10.797 27.2112 10.8223 27.2112C10.8501 27.2116 10.8772 27.2205 10.8999 27.2366C10.9885 27.3002 11.0158 27.2938 11.0158 27.2238C11.017 27.1656 11.0066 27.1077 10.9853 27.0536C10.964 26.9994 10.9321 26.95 10.8916 26.9083C10.851 26.8665 10.8026 26.8332 10.7491 26.8104C10.6955 26.7875 10.638 26.7755 10.5798 26.775C10.464 26.775 10.3804 26.7109 10.4066 26.659C10.4335 26.5617 10.4652 26.4658 10.5016 26.3718C10.6051 26.0702 10.6303 25.8785 10.5719 25.7498C10.3115 25.4426 10.0076 25.1749 9.6699 24.9554C9.55311 24.8792 9.45071 24.8087 9.44524 24.8087C9.49401 24.7671 9.5483 24.7323 9.60656 24.7055C9.80571 24.5899 9.98662 24.4454 10.1434 24.2768C10.228 24.1653 10.2967 24.0427 10.3478 23.9124C10.3478 23.905 10.3166 23.8795 10.2661 23.8409C10.2191 23.8154 10.1815 23.7766 10.1815 23.7518C10.1815 23.7258 10.1949 23.7258 10.2463 23.7518C10.4872 23.8995 10.737 24.0319 10.9945 24.1482C11.1691 24.2254 11.2334 24.2644 11.2586 24.3023C11.2802 24.3362 11.3106 24.3636 11.3465 24.3816C11.3824 24.3997 11.4225 24.4077 11.4625 24.4047C11.4938 24.4096 11.5244 24.4183 11.5536 24.4307C11.5857 24.4649 11.6285 24.4872 11.6749 24.4941C11.7213 24.5009 11.7687 24.4919 11.8094 24.4685C11.8485 24.4557 11.943 24.4685 11.9642 24.5079C11.989 24.5589 12.0132 24.5529 12.0132 24.5529C12.0132 24.5529 12.0211 24.5529 12.0276 24.495C12.0362 24.4562 12.0326 24.4158 12.0175 24.379C12.0024 24.3423 11.9764 24.3111 11.9429 24.2897C11.8898 24.2497 11.8235 24.2314 11.7574 24.2387C11.7822 24.2189 11.8207 24.1741 11.8485 24.1741C11.8694 24.1697 11.8912 24.1709 11.9115 24.1777C11.9319 24.1844 11.9501 24.1964 11.9642 24.2125C11.9959 24.2644 12.0211 24.2506 12.0211 24.2506C12.0211 24.2506 12.0335 24.2506 12.0399 24.187C12.0403 24.1465 12.0297 24.1066 12.0092 24.0716C11.9887 24.0367 11.9592 24.0079 11.9236 23.9883C11.8758 23.9659 11.8221 23.9593 11.7703 23.9695C11.7979 23.9469 11.8281 23.9278 11.8603 23.9124C11.8836 23.9109 11.907 23.914 11.9291 23.9216C11.9512 23.9292 11.9715 23.9411 11.989 23.9567C12.0132 24.0079 12.0399 23.9948 12.0399 23.9948C12.0399 23.9948 12.0459 23.9948 12.0459 23.9304C12.0503 23.886 12.0427 23.8412 12.0238 23.8008C12.0049 23.7603 11.9754 23.7257 11.9385 23.7006C11.8617 23.6525 11.7716 23.6299 11.6812 23.6361C11.6289 23.6349 11.5769 23.6436 11.5278 23.6618C11.4955 23.6768 11.4668 23.6987 11.4437 23.7258C11.3923 23.7766 11.3804 23.7766 11.2715 23.7258C11.0204 23.5716 10.7785 23.4028 10.5472 23.2202C10.4764 23.1687 10.5016 23.1358 10.5719 23.1878C10.5991 23.2103 10.6326 23.2238 10.6679 23.2264C10.7139 23.2264 10.8999 23.0977 11.2334 22.8095C11.4754 22.598 11.4962 22.598 11.5847 22.598C11.6683 22.598 11.6812 22.579 11.7386 22.5215V22.5087C11.7723 22.4754 11.8091 22.4454 11.8485 22.4191C11.8707 22.4141 11.894 22.4164 11.9149 22.4257C11.9357 22.435 11.953 22.4507 11.9642 22.4706C11.9959 22.5216 12.0211 22.5022 12.0211 22.5022C12.0211 22.5022 12.0399 22.5023 12.0399 22.432C12.0393 22.3934 12.0281 22.3557 12.0076 22.3229C11.9871 22.2902 11.9581 22.2637 11.9236 22.2462C11.8909 22.2311 11.8563 22.2202 11.8207 22.214C11.8397 22.2032 11.8573 22.1903 11.8732 22.1754C11.8938 22.1664 11.9167 22.164 11.9387 22.1686C11.9607 22.1733 11.9807 22.1847 11.9959 22.2014C12.0335 22.2526 12.0528 22.2395 12.0528 22.2395C12.0528 22.2395 12.0652 22.2266 12.0652 22.169C12.0581 22.1299 12.0414 22.0931 12.0168 22.0619C11.9921 22.0307 11.9601 22.006 11.9236 21.9901C11.888 21.9841 11.8519 21.9819 11.8158 21.9835C11.8158 21.9835 11.8158 21.9706 11.8207 21.9706C11.837 21.9523 11.8545 21.9351 11.8732 21.9191C11.8942 21.9137 11.9163 21.9133 11.9375 21.9177C11.9588 21.9222 11.9788 21.9315 11.9959 21.9449C12.0276 21.9963 12.0528 21.9835 12.0528 21.9835C12.0528 21.9835 12.0652 21.9835 12.0652 21.9191C12.0475 21.8312 11.9969 21.7534 11.9236 21.7017C11.8158 21.6311 11.6495 21.6821 11.5536 21.7017H11.5466C11.5042 21.7096 11.4662 21.733 11.4401 21.7673C11.4139 21.8016 11.4015 21.8445 11.4051 21.8875C11.4051 21.9577 11.3923 21.9835 11.0979 22.2014C10.9554 22.3265 10.7984 22.434 10.6303 22.5216L10.4705 22.598L10.4893 22.7776C10.4967 22.9317 10.4967 22.9698 10.4705 23.0084C10.426 23.0851 10.4007 23.0723 10.3878 22.9829C10.3833 22.9407 10.3722 22.8995 10.3547 22.8607C10.3478 22.8291 10.3478 22.8291 10.3804 22.8543C10.4066 22.8798 10.4259 22.8798 10.4388 22.8607C10.4517 22.8419 10.4517 22.8031 10.4388 22.6757C10.4296 22.615 10.4169 22.5548 10.4007 22.4956C10.3804 22.4446 10.3478 22.4706 10.3225 22.5471C10.2978 22.6554 10.2661 22.6816 10.2335 22.6373C10.1949 22.5854 10.2018 22.5535 10.2463 22.5594C10.2721 22.5594 10.2849 22.5594 10.2978 22.5216C10.3098 22.4819 10.3114 22.4398 10.3024 22.3993C10.2934 22.3588 10.2741 22.3213 10.2463 22.2905C10.1692 22.1885 10.1692 22.1502 10.2592 22.1502C10.3295 22.1502 10.3478 22.1242 10.3478 22.0344C10.3478 21.9449 10.3225 21.9387 10.2463 21.9706C10.1951 21.9845 10.1409 21.9822 10.091 21.9642C10.0163 21.9449 10.0163 21.9325 10.0029 21.8617C9.99599 21.7331 10.1177 21.6821 10.2849 21.7524C10.375 21.7913 10.3804 21.7848 10.4007 21.7017C10.4139 21.6555 10.4353 21.6121 10.464 21.5735C10.5283 21.51 10.5541 21.3813 10.5224 21.343C10.4832 21.3154 10.4357 21.3019 10.3878 21.3046C10.2463 21.2922 10.1692 21.2532 10.1375 21.1896C10.1118 21.1253 10.0801 21.1253 9.79707 21.0612C9.67605 21.0333 9.55662 20.999 9.43931 20.9583C9.29734 20.8561 9.11869 20.9135 9.11869 21.0478C9.11869 21.0992 9.08652 21.1507 8.99699 21.2655C8.85158 21.4505 8.7429 21.6616 8.67683 21.8875C8.63983 22.1169 8.64419 22.3511 8.6897 22.579C8.7085 22.6628 8.76742 22.8419 8.80993 22.9632C8.91703 23.1689 8.97207 23.3977 8.97024 23.6296C8.97024 24.0336 8.84955 24.2768 8.55513 24.4557C8.4852 24.4992 8.42074 24.551 8.36315 24.6098C8.29288 24.6996 8.29288 24.6996 8.18354 24.6868C8.12596 24.682 8.07 24.6654 8.01922 24.6378C7.96845 24.6103 7.92398 24.5724 7.88866 24.5267C7.83176 24.4307 7.83176 24.1358 7.88273 23.6618C7.9117 23.4367 7.91584 23.209 7.89509 22.9829C7.86343 22.598 7.86343 22.6237 7.90842 22.5087C7.93858 22.4001 7.93955 22.2855 7.91123 22.1764C7.88292 22.0673 7.82631 21.9677 7.74714 21.8875C7.7181 21.8661 7.68379 21.853 7.64788 21.8496C7.61196 21.8462 7.5758 21.8526 7.54326 21.8682C7.39532 21.9449 7.41512 22.3932 7.56804 22.6047L7.63978 22.7009V23.1178C7.64623 23.3171 7.63296 23.5165 7.60016 23.7133ZM8.83719 22.4956C8.83121 22.4827 8.84955 22.4575 8.87478 22.451C8.91384 22.432 8.93315 22.432 8.93315 22.451C8.93214 22.4617 8.92836 22.4719 8.92219 22.4806C8.91601 22.4894 8.90765 22.4963 8.89795 22.5008C8.88824 22.5053 8.87752 22.5072 8.86686 22.5063C8.8562 22.5054 8.84597 22.5017 8.83719 22.4956ZM8.77385 22.1626C8.76098 22.2014 8.7278 22.2014 8.7278 22.169C8.72778 22.1485 8.73437 22.1286 8.74659 22.1121C8.78622 22.0864 8.78622 22.1121 8.77385 22.1626ZM8.81788 22.7071C8.84955 22.6757 8.86885 22.7009 8.85695 22.7523C8.84955 22.7648 8.83719 22.7776 8.81788 22.7588C8.81189 22.7515 8.80861 22.7424 8.80861 22.7329C8.80861 22.7235 8.81189 22.7144 8.81788 22.7071ZM8.88811 21.6821C8.86242 21.7272 8.82432 21.7331 8.82432 21.6886C8.82432 21.6762 8.84955 21.6628 8.86242 21.65C8.90052 21.6378 8.90645 21.65 8.88811 21.6821ZM8.99055 21.9706C8.93811 22.0473 8.90645 22.0666 8.88811 22.0085C8.88811 21.9835 8.89555 21.9706 8.91384 21.9706C8.95195 21.9706 8.99055 21.9065 8.99055 21.8303C8.99055 21.7912 8.99699 21.7588 9.01579 21.7524C9.05637 21.7272 9.02866 21.8875 8.99055 21.9706ZM9.09842 21.452C9.09821 21.4558 9.09719 21.4596 9.09543 21.463C9.09367 21.4663 9.09121 21.4693 9.08822 21.4717C9.08522 21.474 9.08176 21.4757 9.07806 21.4767C9.07436 21.4776 9.07051 21.4777 9.06675 21.477C9.05981 21.477 9.05636 21.4708 9.05636 21.452C9.0583 21.4457 9.06237 21.4403 9.06787 21.4367C9.07338 21.4331 9.07997 21.4315 9.08651 21.4323C9.09842 21.4323 9.11327 21.4456 9.09842 21.452ZM9.1578 22.1242C9.17661 22.1803 9.17661 22.2409 9.1578 22.2969C9.11869 22.451 9.09396 22.4575 9.04101 22.3553C8.99698 22.2781 9.00342 22.2462 9.04101 22.2781C9.06675 22.3033 9.07268 22.2969 9.09396 22.2781C9.11413 22.2509 9.127 22.219 9.13133 22.1855C9.13566 22.1519 9.1313 22.1178 9.11868 22.0864C9.11326 22.0408 9.09842 22.0085 9.11326 22.0218C9.13458 22.0527 9.1497 22.0875 9.1578 22.1242ZM9.17067 21.7272C9.18843 21.7173 9.20271 21.7022 9.21156 21.6839C9.22041 21.6656 9.2234 21.645 9.22011 21.625C9.22011 21.5609 9.22011 21.5547 9.24089 21.5862C9.24785 21.6255 9.24508 21.6659 9.23284 21.7039C9.2206 21.7418 9.19926 21.7763 9.17067 21.8041C9.11868 21.8548 9.11868 21.8548 9.11868 21.7913C9.12004 21.7766 9.12571 21.7627 9.13496 21.7513C9.14421 21.7399 9.15664 21.7315 9.17067 21.7272ZM9.3181 21.2781L9.19539 21.2274V21.1252C9.19539 21.0221 9.234 21.0095 9.24089 21.1185C9.24783 21.1896 9.25873 21.2017 9.34233 21.2467C9.52245 21.343 9.50364 21.3679 9.3181 21.2781ZM9.34233 21.5862C9.36163 21.5735 9.4012 21.6123 9.38686 21.6378C9.38144 21.6628 9.37551 21.6566 9.35469 21.6311C9.34876 21.6123 9.34233 21.5862 9.34233 21.5862ZM9.47791 22.6047C9.46504 22.573 9.47791 22.5854 9.50365 22.6373C9.52349 22.6778 9.53828 22.7206 9.54768 22.7648C9.54768 22.8291 9.50365 22.9829 9.48333 22.9829C9.46124 22.9678 9.44555 22.945 9.43931 22.9189C9.40718 22.8672 9.4012 22.8607 9.42694 22.8672C9.43766 22.8676 9.44833 22.8656 9.45811 22.8612C9.4679 22.8568 9.47654 22.8502 9.48334 22.8419C9.50908 22.8157 9.50365 22.7648 9.47791 22.6047ZM9.44524 22.2717C9.47792 22.2781 9.48334 22.2655 9.49621 22.2014L9.50908 22.1242L9.52787 22.1885C9.54768 22.2655 9.52245 22.4191 9.48334 22.4191C9.4602 22.4022 9.44444 22.3771 9.43931 22.3489C9.40121 22.2526 9.40121 22.2526 9.44524 22.2717ZM9.54768 21.9642C9.52245 21.9901 9.51602 21.9901 9.50907 21.9706C9.50179 21.9439 9.49133 21.9181 9.47791 21.8939C9.46504 21.8682 9.46504 21.8682 9.50365 21.881C9.53628 21.8875 9.5531 21.881 9.56202 21.8548C9.56846 21.8368 9.57935 21.8303 9.58674 21.8303C9.60655 21.8303 9.57935 21.9191 9.54768 21.9642ZM9.61892 22.579C9.65058 22.579 9.66989 22.5594 9.66989 22.5087C9.68225 22.451 9.68225 22.4446 9.68818 22.4706C9.71392 22.5365 9.71392 22.6098 9.68818 22.6757C9.66989 22.7267 9.65702 22.7267 9.61101 22.6373L9.57935 22.573L9.61892 22.579ZM9.60656 22.1371C9.60656 22.1121 9.61101 22.1121 9.63083 22.1371C9.65702 22.1885 9.70748 22.1435 9.70748 22.0728C9.70748 22.0344 9.7278 22.0085 9.73373 22.0218C9.7654 22.0408 9.75992 22.1121 9.70748 22.1952L9.66989 22.2655L9.63083 22.214C9.63083 22.1885 9.60656 22.1502 9.60656 22.1371ZM9.7278 21.8875C9.64364 21.7913 9.57935 21.6124 9.63082 21.6124C9.63822 21.6124 9.65058 21.65 9.66989 21.6886C9.67937 21.7567 9.71101 21.8198 9.75992 21.8682C9.85594 21.9901 9.83516 21.9964 9.7278 21.8875ZM9.86136 22.5216C9.84205 22.5216 9.80942 22.4827 9.79706 22.451C9.77132 22.3932 9.77132 22.3808 9.80942 22.3996C9.86136 22.4446 9.88167 22.432 9.88811 22.3172C9.90741 22.2462 9.90741 22.2395 9.91977 22.2717C9.9638 22.3682 9.91978 22.5342 9.86136 22.5216ZM9.97718 21.3237C9.97718 21.3175 10.0162 21.3046 10.042 21.3046C10.0984 21.3046 10.1177 21.3303 10.091 21.4068C10.0801 21.4323 10.0731 21.4261 10.0286 21.3813C10.0061 21.3677 9.98817 21.3476 9.97718 21.3237ZM10.1766 22.3932C10.1434 22.4191 10.0984 22.3996 10.0543 22.3288C9.98311 22.2395 9.98904 22.2266 10.0667 22.2905C10.094 22.3125 10.1273 22.3259 10.1622 22.3288C10.1815 22.3172 10.2018 22.3682 10.1766 22.3932ZM10.1434 23.0337L10.1815 23.0723C10.1974 23.0955 10.22 23.1133 10.2463 23.1232C10.2849 23.1232 10.2903 22.9958 10.2661 22.8798C10.2592 22.8157 10.2463 22.7648 10.2463 22.7588C10.2463 22.7267 10.2903 22.8157 10.3225 22.9127C10.3465 22.9786 10.349 23.0504 10.3295 23.1178C10.2903 23.2778 10.2087 23.3736 10.2087 23.239C10.2038 23.1953 10.193 23.1524 10.1765 23.1116L10.1434 23.0337ZM10.1246 22.8031C10.091 22.8934 10.0667 22.8934 10.0286 22.7907C10.0028 22.7267 10.0088 22.7138 10.042 22.7267C10.086 22.7395 10.086 22.7267 10.0801 22.6108C10.0731 22.5471 10.0667 22.4827 10.0801 22.4827C10.0893 22.5221 10.1019 22.5607 10.1177 22.598C10.1326 22.63 10.1409 22.6646 10.1421 22.6998C10.1433 22.7351 10.1374 22.7702 10.1246 22.8031ZM9.96379 23.2778C10.0162 23.3033 10.0484 23.2202 10.042 23.0723L10.0212 22.9443L10.0597 23.0337C10.0855 23.0769 10.1002 23.1259 10.1026 23.1762C10.1049 23.2265 10.0948 23.2766 10.0732 23.3221C10.042 23.3926 10.0029 23.4562 9.98904 23.4562C9.97627 23.4297 9.96156 23.4041 9.94501 23.3798C9.91385 23.2778 9.91383 23.2712 9.96379 23.2778ZM9.85594 23.0473C9.84206 23.0473 9.80943 23.0084 9.7916 22.9577C9.75993 22.887 9.75993 22.8672 9.78516 22.8934C9.83517 22.9443 9.87423 22.9127 9.87423 22.8031C9.87423 22.6816 9.90742 22.6757 9.93068 22.7648C9.94501 22.8419 9.88811 23.0661 9.85594 23.0473ZM9.71392 23.5339C9.7654 23.5339 9.82281 23.4562 9.82281 23.3798C9.82281 23.2645 9.85595 23.29 9.85595 23.4179C9.85595 23.598 9.75993 23.7902 9.72781 23.6618C9.72274 23.6309 9.71375 23.6007 9.70106 23.572C9.68819 23.5465 9.68819 23.5339 9.71392 23.5339ZM9.60657 23.29C9.57936 23.2007 9.57936 23.1878 9.61893 23.2007C9.63083 23.2138 9.65703 23.1878 9.68226 23.1621C9.69691 23.1396 9.70621 23.114 9.70947 23.0874C9.71273 23.0608 9.70985 23.0338 9.70106 23.0084C9.67634 22.887 9.68819 22.8798 9.73374 22.9958C9.75329 23.0495 9.75329 23.1084 9.73374 23.1621C9.68226 23.3672 9.6506 23.3991 9.60657 23.29ZM9.47792 23.649C9.50908 23.688 9.50908 23.688 9.53629 23.649C9.56203 23.6232 9.56846 23.5849 9.56203 23.4827C9.5477 23.3412 9.56846 23.354 9.60657 23.4955C9.62539 23.546 9.63176 23.6003 9.62513 23.6537C9.6185 23.7072 9.59906 23.7583 9.56846 23.8026L9.52246 23.8795L9.49621 23.7838C9.48334 23.7381 9.46815 23.6931 9.45071 23.649C9.43931 23.6101 9.43931 23.6101 9.47792 23.649ZM9.37552 23.3221C9.40121 23.3412 9.44524 23.2712 9.44524 23.1749V23.1178L9.47052 23.1749C9.48418 23.2364 9.47296 23.3008 9.43931 23.354C9.38687 23.4699 9.38145 23.4762 9.3547 23.3672C9.34234 23.3221 9.34877 23.3159 9.37552 23.3221ZM9.24784 22.0864C9.22013 22.0344 9.22013 22.0218 9.25874 22.0473C9.29735 22.0728 9.30474 22.0666 9.32947 22.0085L9.3547 21.9387L9.36164 22.0085C9.36164 22.1435 9.31067 22.1755 9.24784 22.0864ZM9.2785 22.6881C9.26696 22.6586 9.25203 22.6306 9.23401 22.6047C9.18304 22.5471 9.18304 22.4956 9.2409 22.5216C9.29734 22.5594 9.31811 22.5087 9.2785 22.3996C9.27257 22.3553 9.25874 22.3034 9.25874 22.2781C9.25874 22.2395 9.26664 22.2395 9.29735 22.3172C9.34444 22.431 9.35176 22.5573 9.31813 22.6757C9.29735 22.7138 9.2904 22.7138 9.2785 22.6881ZM9.20828 23.0473C9.17662 22.9698 9.17662 22.9698 9.22014 22.9958C9.25875 23.0084 9.26665 23.0084 9.24785 22.9189C9.24511 22.879 9.23574 22.8399 9.22014 22.8031C9.22014 22.7776 9.23402 22.8031 9.25875 22.8419C9.27985 22.8762 9.29215 22.9152 9.29456 22.9554C9.29697 22.9955 9.28942 23.0357 9.27258 23.0723C9.25327 23.1359 9.25875 23.1359 9.20828 23.0473ZM9.13851 23.4243C9.18305 23.4436 9.20828 23.3736 9.17662 23.2778C9.16331 23.2452 9.15691 23.2101 9.15782 23.1749C9.17069 23.1232 9.24091 23.3221 9.24091 23.3926C9.23815 23.4656 9.21594 23.5365 9.1766 23.598C9.17067 23.598 9.15137 23.572 9.12613 23.5272C9.08651 23.4319 9.08653 23.4179 9.13851 23.4243ZM9.03508 22.7776C9.00342 22.7267 9.00342 22.7138 9.04101 22.7138C9.06675 22.7138 9.07268 22.7009 9.05981 22.6237C9.05636 22.5471 9.05636 22.5471 9.07268 22.579C9.12613 22.6373 9.12613 22.8095 9.07268 22.8095C9.06675 22.8095 9.05636 22.8031 9.03508 22.7776ZM8.95194 23.1499C8.94121 23.1253 8.93485 23.0991 8.93315 23.0723C8.93315 23.0661 8.93811 23.0661 8.95194 23.0661C8.97023 23.0723 8.97768 23.0473 8.97768 22.9829C8.97023 22.906 8.97023 22.8934 8.99055 22.9317C9.01739 23.0079 9.02185 23.0901 9.00342 23.1687C8.99055 23.1878 8.97768 23.1749 8.95194 23.1499Z" fill="#231F20"/>
<path d="M36.4727 25.0067C36.4742 27.2891 35.7987 29.5206 34.5318 31.419C33.2648 33.3174 31.4632 34.7974 29.355 35.6718C27.2468 36.5462 24.9266 36.7757 22.6879 36.3312C20.4492 35.8868 18.3927 34.7884 16.7783 33.1749C15.164 31.5615 14.0645 29.5056 13.6188 27.2671C13.1731 25.0287 13.4013 22.7084 14.2745 20.5997C15.1477 18.491 16.6268 16.6886 18.5245 15.4206C20.4222 14.1525 22.6533 13.4758 24.9357 13.476C26.4503 13.4756 27.9502 13.7735 29.3498 14.3528C30.7493 14.932 32.021 15.7812 33.0923 16.852C34.1636 17.9227 35.0135 19.1939 35.5936 20.5931C36.1736 21.9923 36.4723 23.492 36.4727 25.0067Z" fill="#E01B22"/>
<path d="M33.5896 16.3461C31.5858 14.342 28.9491 13.0947 26.1287 12.8168C23.3083 12.5388 20.4788 13.2474 18.1224 14.8219C15.7659 16.3963 14.0282 18.739 13.2055 21.451C12.3827 24.163 12.5258 27.0763 13.6103 29.6947C14.6948 32.313 16.6536 34.4742 19.153 35.8102C21.6524 37.1462 24.5377 37.5741 27.3173 37.0212C30.0968 36.4683 32.5987 34.9687 34.3965 32.7779C36.1944 30.5871 37.1769 27.8407 37.1768 25.0067C37.1793 23.3979 36.8636 21.8045 36.248 20.3182C35.6323 18.8319 34.7289 17.482 33.5896 16.3461ZM17.6266 16.6278C18.2731 17.3128 18.8481 18.0618 19.3426 18.8633C20.3731 20.5096 20.9928 22.3794 21.1495 24.3152H13.84C13.9268 22.8461 14.3065 21.4092 14.9568 20.089C15.6071 18.7688 16.5148 17.592 17.6266 16.6278ZM17.5554 33.3221C16.4453 32.3358 15.5435 31.1375 14.9032 29.7976C14.2628 28.4577 13.8968 27.0034 13.8266 25.52H21.1624C21.063 27.5618 20.4073 29.5376 19.2664 31.2339C18.8792 31.8297 18.4417 32.3912 17.9586 32.9122C17.786 33.0918 17.6514 33.2192 17.5554 33.3221ZM24.2564 36.1016C22.1846 35.9812 20.1886 35.2797 18.497 34.0774C19.1632 33.4126 19.7562 32.6783 20.2659 31.887C21.621 29.8688 22.3513 27.496 22.3652 25.0651C22.3652 22.1755 21.3341 19.8054 20.3084 18.1528C19.8076 17.3409 19.2241 16.5829 18.5673 15.8911C20.254 14.7119 22.2342 14.0226 24.2885 13.8993C24.3647 14.3098 24.3518 35.5643 24.2564 36.1016ZM36.0368 24.3152H28.7337C28.8774 22.3767 29.4983 20.5038 30.5412 18.8634C31.0302 18.0582 31.6054 17.3086 32.2566 16.6278C33.3614 17.5975 34.264 18.7757 34.9127 20.0948C35.5614 21.414 35.9434 22.8482 36.0368 24.3152ZM25.6205 36.1016C25.4419 35.1026 25.4166 14.8662 25.5829 13.8993C27.639 14.0207 29.6211 14.7102 31.3086 15.8911C30.6531 16.5859 30.0674 17.3435 29.56 18.1528C28.5407 19.8054 27.5046 22.1755 27.5046 25.0651C27.5205 27.4968 28.2536 29.8699 29.612 31.887C30.1209 32.6769 30.7115 33.411 31.3739 34.0774C29.684 35.2786 27.6902 35.9801 25.6205 36.1016ZM32.3219 33.316C32.219 33.2192 32.0845 33.0918 31.9242 32.9122C31.4353 32.3947 30.9957 31.8329 30.611 31.2339C29.4722 29.5366 28.8167 27.5614 28.7149 25.52H36.0497C35.9818 27.0028 35.6168 28.4569 34.9765 29.796C34.3361 31.1352 33.4335 32.3322 32.3219 33.316Z" fill="#231F20"/>
<path d="M18.9389 28.684H19.5157V29.4785H20.6998L20.2264 31.6178H19.3366V31.0161H19.6949L19.8557 30.0614H18.9389V28.684Z" fill="white"/>
<path d="M20.829 29.4785V30.055H21.1239L21.5207 31.0161H20.829V31.6178H22.8329V29.4785H21.9759V30.055H22.1351V30.6764L21.5791 29.4785H20.829Z" fill="white"/>
<path d="M26.4655 29.4785H28.1579V31.6178H26.4655V31.0161H27.4839V30.055H27.1385V30.4969H26.4655V29.4785Z" fill="white"/>
<path d="M29.1751 30.4969H28.4784V31.6178H29.1751V30.4969Z" fill="white"/>
<path d="M28.4784 29.4785H30.0281V31.6178H29.3868V30.055H28.4784V29.4785Z" fill="white"/>
<path d="M30.9697 21.9835C30.2725 17.2681 24.1856 15.8335 20.6998 19.5105L19.6632 19.3566C18.0621 18.7035 18.4653 20.8304 19.7716 19.7925L23.5834 20.9135L24.2371 23.4436L22.6478 27.9541L20.0348 25.3535C19.5227 24.7894 18.49 25.6603 19.1704 26.2753L24.429 30.4008L23.3781 31.606L24.5132 32.6492L26.0569 30.914L26.2617 29.1132C29.4264 27.967 31.4179 25.8847 30.9697 21.9835ZM25.9471 28.6073L24.7239 30.0676L22.91 28.2161L25.006 24.7894L26.523 28.5305L25.9471 28.6073ZM26.8892 28.3386L26.0891 23.3798L25.4681 23.2967L25.9668 22.7648L26.3132 21.4323L29.1503 21.1896L26.8892 19.2544C26.9082 19.1549 26.8951 19.0519 26.8518 18.9602C26.8085 18.8686 26.7371 18.7931 26.6481 18.7446C26.5591 18.6961 26.457 18.6772 26.3565 18.6905C26.256 18.7039 26.1624 18.7488 26.0891 18.8188C25.7868 19.0686 26.0173 19.7285 26.5171 19.5365L27.4399 20.6127L25.3197 20.2666L25.0248 19.7802C25.1653 19.562 25.0822 18.5815 24.955 18.6008C24.598 18.4223 24.1982 18.347 23.8007 18.3834C23.7355 18.4344 23.6826 18.4994 23.6461 18.5736C23.6095 18.6479 23.5901 18.7294 23.5894 18.8121L23.8007 18.8443L23.8788 19.6767C24.0384 19.7748 24.2215 19.828 24.4087 19.8309L24.3518 20.2022L21.2129 19.6065C23.9422 17.1019 28.613 17.8191 29.6436 21.9835C30.3873 25.4171 28.8173 27.659 26.8892 28.3386Z" fill="white"/>
<path d="M24.1614 27.2174H25.0822V29.0944H24.4032V27.8128H24.1614V27.2174Z" fill="white"/>
</svg>
