<svg width="50" height="50" viewBox="0 0 50 50" fill="none" xmlns="http://www.w3.org/2000/svg">
<path d="M13.2157 14.0516C12.7882 14.0733 12.3637 14.0981 11.9362 14.1229C11.9362 12.9673 11.9362 11.8149 11.9393 10.6593C12.3668 10.6531 12.7944 10.6438 13.2219 10.6376C13.2219 11.7746 13.2188 12.9116 13.2157 14.0485M11.93 19.916C11.93 18.4631 11.93 17.0071 11.9331 15.5541C12.4908 15.5076 13.0484 15.4612 13.6029 15.4209C13.9592 15.2319 14.3155 15.0429 14.6686 14.8602C14.6686 13.1842 14.6748 11.5113 14.6779 9.83528C14.3619 9.65869 14.0459 9.48211 13.7299 9.30243H10C10.1239 9.39227 10.2509 9.48211 10.3749 9.57195C10.3749 13.0045 10.3749 16.4401 10.3749 19.8727C10.2509 19.9811 10.127 20.0926 10.0031 20.2011C10.6444 20.0988 11.2888 20.0028 11.9331 19.9129" fill="#303030"/>
<path d="M23.6992 16.9234C23.3057 16.9327 22.9123 16.942 22.5189 16.9544C22.5189 14.9841 22.5251 13.0107 22.5251 11.0404C22.9185 11.0404 23.3088 11.0342 23.7023 11.0342C23.7023 12.9983 23.6992 14.9624 23.6961 16.9234M21.9117 9.80429C21.5957 9.97158 21.2797 10.142 20.9637 10.3093C20.9606 12.7876 20.9544 15.2629 20.9513 17.7413C21.289 17.8931 21.6297 18.0449 21.9674 18.1998C21.9674 18.1998 21.9674 18.1998 21.9705 18.1998C22.7357 18.1688 23.4978 18.1471 24.263 18.1285C24.5976 17.955 24.9322 17.7846 25.2667 17.6143C25.2667 15.1731 25.2667 12.7319 25.2698 10.2938C24.9539 10.1296 24.6379 9.96539 24.3219 9.8012C23.5195 9.8012 22.714 9.8012 21.9117 9.80429Z" fill="#303030"/>
<path d="M30.112 18.1595C30.112 17.7475 30.112 17.3385 30.112 16.9265C29.3622 16.9079 28.6094 16.8955 27.8597 16.8862C27.8597 16.2419 27.8597 15.5975 27.8597 14.9562C28.5196 14.9593 29.1764 14.9686 29.8362 14.981C29.8362 14.5504 29.8362 14.1198 29.8362 13.686C29.1795 13.6767 28.5196 13.6706 27.8628 13.6675C27.8628 12.7876 27.8628 11.9078 27.8628 11.028C28.6125 11.028 29.3622 11.0311 30.112 11.0373C30.112 10.6253 30.112 10.2163 30.112 9.8043C28.7055 9.8043 27.299 9.8012 25.8894 9.8043C26.0134 9.88484 26.1404 9.96539 26.2643 10.0428C26.2643 12.6513 26.2643 15.2598 26.2643 17.8714C26.1404 17.9519 26.0134 18.0325 25.8894 18.113C27.299 18.1037 28.7117 18.1192 30.1212 18.1626" fill="#303030"/>
<path d="M36.0538 18.4879C36.7106 18.5405 37.3674 18.5994 38.0241 18.6645C38.0179 15.7183 38.0118 12.7752 38.0087 9.82908C37.3519 9.82598 36.6951 9.82288 36.0353 9.81979C36.1592 9.90343 36.2862 9.98708 36.4101 10.0738C36.4163 12.8062 36.4194 15.5386 36.4256 18.2679C36.3017 18.3423 36.1778 18.4135 36.0507 18.4879" fill="#303030"/>
<path d="M15.2758 18.6645C15.9326 18.5994 16.5894 18.5405 17.2461 18.4879L17.2523 15.1947C17.6272 15.1762 18.002 15.1576 18.3769 15.139C18.3769 16.1427 18.3738 17.1496 18.3707 18.1533C18.2189 18.2648 18.0609 18.3794 17.9958 18.429C18.6526 18.3794 19.3063 18.3361 19.963 18.2989C19.9692 15.4705 19.9723 12.6389 19.9785 9.81049C19.3249 9.81049 18.6681 9.81669 18.0144 9.81669C18.1383 9.90033 18.2623 9.98088 18.3893 10.0614C18.3893 11.3099 18.3831 12.5584 18.3831 13.8069C18.0082 13.8193 17.6334 13.8347 17.2585 13.8502C17.2585 12.5057 17.2647 11.1643 17.2678 9.81979C16.611 9.81979 15.9543 9.82598 15.2944 9.82908C15.4183 9.91272 15.5423 9.99637 15.6693 10.08C15.6631 12.8434 15.66 15.6068 15.6538 18.3733C15.5299 18.4693 15.4028 18.5653 15.2789 18.6645" fill="#303030"/>
<path d="M43.2845 20.2041C42.826 18.2153 42.3675 16.2666 41.909 14.3521C42.3148 12.7009 42.7238 11.0218 43.1296 9.31172C42.4821 9.31172 41.8315 9.31172 41.1841 9.31172C41.2925 9.38917 41.4009 9.46352 41.5094 9.54097C41.3173 10.4146 41.1252 11.2789 40.9362 12.1402C40.7287 11.1891 40.5211 10.2473 40.3135 9.31172C39.6444 9.31172 38.9752 9.31172 38.3061 9.31172C38.4548 9.41395 38.6066 9.51618 38.7553 9.61841C39.1022 11.124 39.4492 12.6513 39.7962 14.1941C39.4058 15.9073 39.0155 17.5957 38.6283 19.2655C38.4795 19.3491 38.3339 19.4359 38.1852 19.5195C38.8327 19.5907 39.4771 19.6651 40.1215 19.7487C40.3724 18.6583 40.6264 17.5616 40.8774 16.4525C41.1128 17.5058 41.3514 18.5684 41.5868 19.6403C41.4443 19.724 41.3018 19.8045 41.1593 19.8851C41.8687 19.9842 42.5782 20.0864 43.2876 20.201" fill="#303030"/>
<path d="M33.8977 10.0583C33.8977 11.2108 33.9008 12.3632 33.9039 13.5157C33.4701 12.2703 33.0364 11.0342 32.6058 9.81049C31.9769 9.81049 31.3449 9.80739 30.7161 9.8043C30.84 9.88484 30.967 9.96539 31.0909 10.0459C31.094 12.6792 31.0971 15.3156 31.1002 17.9488C30.9763 18.0263 30.8493 18.1006 30.7254 18.1781C31.3635 18.1998 31.9986 18.2277 32.6368 18.2617C32.6368 16.911 32.6337 15.5634 32.6306 14.2127C33.1015 15.5727 33.5724 16.9482 34.0433 18.3392C34.508 18.3702 34.9758 18.4011 35.4404 18.4383C35.4343 15.5665 35.4281 12.6947 35.425 9.82288C34.793 9.82288 34.161 9.81669 33.5259 9.81669C33.6498 9.89724 33.7737 9.98088 33.8977 10.0614" fill="#303030"/>
<path d="M33.7614 22.8436C33.4237 22.5865 33.0736 22.351 32.7173 22.1373C34.573 24.9068 34.6257 28.6306 32.6213 31.49C32.708 30.3345 32.3952 29.0581 31.7136 27.8096C31.8809 29.3927 31.5773 30.889 30.7346 32.1375C30.6169 32.3141 30.4868 32.4814 30.3536 32.6394C30.2947 32.5402 30.2359 32.4411 30.1801 32.3389C28.4236 29.1696 28.9688 25.3468 31.2644 22.794C30.8802 22.9551 30.5023 23.141 30.1305 23.3455C26.3634 25.4335 24.1918 29.2812 24.0709 33.2961C23.0858 31.5922 22.7016 29.5352 23.1384 27.4596C23.4049 26.1863 23.9532 25.0432 24.7029 24.0797C26.2612 21.9607 28.975 21.1893 31.3418 22.0072C30.6107 20.8206 28.9595 20.6286 28.9595 20.6286C28.9595 20.6286 29.0091 19.9222 27.5004 19.5474C26.9149 19.3987 26.0908 19.3026 24.9384 19.3243H24.8392C23.5009 19.3553 22.4042 19.6186 21.5275 19.9594C21.1991 20.0802 20.8955 20.2165 20.6353 20.3652C21.4594 20.2537 22.2617 20.2723 23.0238 20.4272C21.828 20.6564 20.0498 21.3101 19.077 22.1063C19.7926 21.8925 20.5052 21.781 21.2084 21.7872C18.1848 23.3579 15.8613 26.2235 15.1085 29.8171C13.7733 36.1772 17.8471 42.4165 24.2103 43.7486C26.4904 44.2257 28.7519 44.0058 30.7811 43.2406C30.8648 43.2096 30.9515 43.1786 31.0351 43.1445C31.0599 43.1352 31.0878 43.1229 31.1126 43.1136C33.0054 42.3422 34.7248 41.0689 36.0476 39.3217C39.9697 34.1388 38.9473 26.7594 33.7645 22.8374" fill="#303030"/>
<path d="M26.3293 30.2477C26.2612 30.4429 26.193 30.6412 26.1373 30.8425C25.7531 32.184 25.6509 33.5625 25.8244 34.9071C26.6701 34.7924 27.4601 34.5725 28.1757 34.2472C27.9434 33.7515 27.7513 33.2466 27.6088 32.7354C27.0109 32.0074 26.5741 31.1554 26.3324 30.2477" fill="#69BE29"/>
<path d="M28.0177 31.6015C27.9991 31.5458 27.9806 31.49 27.962 31.4312C27.9465 31.3816 27.9279 31.3351 27.9124 31.2855C27.8938 31.2267 27.8783 31.1678 27.8597 31.109C27.8473 31.0625 27.8319 31.0129 27.8195 30.9665C27.804 30.9076 27.7885 30.8456 27.773 30.7837C27.7606 30.7372 27.7482 30.6907 27.7389 30.6443C27.7234 30.5823 27.711 30.5204 27.6955 30.4584C27.6863 30.4119 27.6739 30.3686 27.6646 30.3221C27.6522 30.257 27.6398 30.1951 27.6274 30.13C27.6181 30.0866 27.6119 30.0433 27.6026 29.9999C27.5902 29.9348 27.5809 29.8698 27.5716 29.8047C27.5654 29.7614 27.5592 29.718 27.553 29.6746C27.5437 29.6096 27.5376 29.5414 27.5283 29.4763C27.5221 29.433 27.519 29.3927 27.5128 29.3493C27.5066 29.2812 27.5004 29.2161 27.4942 29.148C27.4911 29.1046 27.488 29.0643 27.4849 29.0209C27.4787 28.9528 27.4756 28.8877 27.4725 28.8196C27.4725 28.7793 27.4694 28.7359 27.4663 28.6957C27.4663 28.6275 27.4632 28.5624 27.4601 28.4943C27.4601 28.454 27.4601 28.4106 27.4601 28.3704C27.4601 28.3022 27.4601 28.2372 27.4601 28.169C27.4601 28.1566 27.4601 28.1473 27.4601 28.1349C27.4601 28.1194 27.4601 28.1008 27.4601 28.0854C27.1379 29.5972 27.172 31.1926 27.6057 32.7323C27.7482 33.2435 27.9403 33.7484 28.1726 34.2441C28.4886 34.0985 28.7922 33.9343 29.0741 33.7453C28.944 33.5471 28.8201 33.3426 28.7024 33.135C28.7024 33.1288 28.6962 33.1226 28.6931 33.1195C28.6404 33.0266 28.5909 32.9306 28.5413 32.8345C28.5227 32.7974 28.5041 32.7602 28.4855 32.723C28.4545 32.6579 28.4205 32.596 28.3926 32.5309C28.3709 32.4845 28.3523 32.438 28.3306 32.3915C28.3058 32.3358 28.278 32.28 28.2563 32.2211C28.2346 32.1716 28.2129 32.1189 28.1943 32.0662C28.1726 32.0136 28.1509 31.9609 28.1293 31.9082C28.1076 31.8556 28.089 31.7998 28.0704 31.7471C28.0518 31.6976 28.0332 31.648 28.0146 31.5953" fill="#CEFF00"/>
<path d="M34.6691 36.6729C33.306 37.2956 31.7663 37.5558 30.1925 37.3545C31.5649 36.707 32.8041 35.7311 33.783 34.4362C34.2477 33.8228 34.6288 33.1691 34.9262 32.4938C35.6232 31.8556 36.1747 31.0749 36.5433 30.2106C36.5433 30.2106 37.2094 33.2899 34.666 36.6729" fill="#69BE29"/>
<path d="M30.8183 35.3594C29.796 35.9511 28.6869 36.3476 27.5221 36.5459C28.1448 36.8588 28.8201 37.0973 29.5357 37.2491C29.7557 37.2956 29.9757 37.3328 30.1925 37.3607C31.5649 36.7132 32.8041 35.7373 33.783 34.4424C34.2477 33.829 34.6288 33.1753 34.9262 32.5C35.5706 31.0377 35.8308 29.464 35.7255 27.9212C35.7255 27.9367 35.7193 27.9552 35.7193 27.9707C35.7193 27.9831 35.7162 27.9924 35.7131 28.0048C35.7038 28.0699 35.6945 28.138 35.6852 28.2031C35.679 28.2434 35.6728 28.2867 35.6666 28.327C35.6573 28.3921 35.6449 28.4602 35.6325 28.5253C35.6263 28.5655 35.617 28.6089 35.6077 28.6492C35.5954 28.7142 35.583 28.7793 35.5675 28.8444C35.5582 28.8846 35.5489 28.928 35.5396 28.9683C35.5241 29.0333 35.5086 29.0984 35.4931 29.1635C35.4838 29.2068 35.4714 29.2471 35.459 29.2905C35.4436 29.3555 35.425 29.4175 35.4064 29.4794C35.394 29.5228 35.3816 29.5631 35.3692 29.6065C35.3506 29.6684 35.332 29.7304 35.3103 29.7954C35.2979 29.8388 35.2825 29.8791 35.267 29.9225C35.2453 29.9844 35.2267 30.0433 35.205 30.1052C35.1895 30.1486 35.174 30.192 35.1554 30.2353C35.1338 30.2942 35.1121 30.3531 35.0873 30.4119C35.0687 30.4553 35.0501 30.5018 35.0315 30.5451C35.0067 30.6009 34.9851 30.6598 34.9603 30.7155C34.9417 30.762 34.92 30.8054 34.8983 30.8518C34.8735 30.9076 34.8487 30.9634 34.824 31.016C34.8023 31.0625 34.7775 31.109 34.7558 31.1554C34.7279 31.2081 34.7031 31.2608 34.6753 31.3134C34.6505 31.363 34.6226 31.4095 34.5978 31.4559C34.5699 31.5055 34.5451 31.5551 34.5173 31.6046C34.4894 31.6542 34.4584 31.7038 34.4305 31.7533C34.4026 31.7998 34.3779 31.8463 34.3469 31.8928C34.3159 31.9454 34.2818 31.9981 34.2477 32.0508C34.2199 32.0941 34.1951 32.1375 34.1672 32.1778C34.13 32.2366 34.0897 32.2924 34.0495 32.3482C34.0247 32.3853 33.9999 32.4225 33.9751 32.4566C33.9132 32.5433 33.8512 32.627 33.7892 32.7137C33.783 32.7199 33.7799 32.7261 33.7738 32.7323C32.9621 33.8042 31.9676 34.684 30.809 35.3501" fill="#CEFF00"/>
<path d="M19.266 26.9701C18.2189 28.1566 17.4599 29.6281 17.1222 31.2886C16.7009 33.3581 16.9983 35.4058 17.8409 37.1779C17.9215 37.3204 18.0051 37.4629 18.095 37.6023C17.6334 35.9913 17.8069 34.272 18.5566 32.7974C18.445 34.3773 18.7363 36.0037 19.4767 37.531C20.4742 39.5881 22.1285 41.1154 24.0647 41.9828C24.1546 42.0076 24.2444 42.0262 24.3374 42.0479C23.2314 41.3787 22.3392 40.3936 21.7877 39.2225C22.9681 40.2758 24.4334 41.0441 26.0939 41.3911C28.312 41.8558 30.5116 41.4933 32.3735 40.5144C32.4695 40.4493 32.5624 40.3812 32.6585 40.3099C31.7167 40.344 30.778 40.1798 29.9044 39.8235C29.1671 39.8421 28.4143 39.7771 27.6584 39.6191C22.4104 38.5193 19.0491 33.3705 20.1489 28.1256C20.6167 25.8982 21.6824 23.742 23.7704 22.5555C22.1471 23.0357 20.6725 23.9155 19.4705 25.1237C18.5194 26.0779 17.779 27.2086 17.2771 28.4478C17.8409 27.8406 18.5132 27.3356 19.266 26.9763" fill="#69BE29"/>
<path d="M20.1458 28.1225C19.046 33.3705 22.4073 38.5162 27.6522 39.616C28.405 39.774 29.1578 39.839 29.8982 39.8204C31.4967 39.7802 33.0302 39.3434 34.3809 38.5905C34.3655 38.5967 34.35 38.5998 34.3314 38.606C34.3221 38.6091 34.3097 38.6122 34.3004 38.6153C34.2353 38.637 34.1734 38.6556 34.1083 38.6773C34.0681 38.6897 34.0278 38.699 33.9906 38.7114C33.9256 38.73 33.8605 38.7485 33.7954 38.7671C33.7552 38.7764 33.7149 38.7888 33.6746 38.7981C33.6096 38.8136 33.5445 38.8322 33.4794 38.8477C33.4392 38.857 33.3958 38.8663 33.3555 38.8756C33.2905 38.891 33.2254 38.9034 33.1604 38.9158C33.117 38.9251 33.0767 38.9313 33.0333 38.9406C32.9683 38.953 32.9032 38.9654 32.8382 38.9747C32.7948 38.9809 32.7514 38.9871 32.7081 38.9933C32.643 39.0026 32.5779 39.0119 32.516 39.0212C32.4726 39.0274 32.4261 39.0305 32.3797 39.0367C32.3146 39.0428 32.2527 39.0521 32.1876 39.0583C32.1411 39.0614 32.0947 39.0645 32.0482 39.0707C31.9862 39.0769 31.9212 39.08 31.8592 39.0862C31.8127 39.0862 31.7632 39.0924 31.7167 39.0924C31.6547 39.0924 31.5928 39.0986 31.5308 39.1017C31.4813 39.1017 31.4317 39.1017 31.3821 39.1017C31.3202 39.1017 31.2613 39.1017 31.1993 39.1017C31.1467 39.1017 31.094 39.1017 31.0444 39.1017C30.9856 39.1017 30.9267 39.1017 30.8679 39.0986C30.8121 39.0986 30.7594 39.0924 30.7037 39.0893C30.6479 39.0862 30.589 39.0831 30.5333 39.08C30.4744 39.0769 30.4187 39.0707 30.3598 39.0645C30.3071 39.0583 30.2514 39.0552 30.1987 39.049C30.1367 39.0428 30.0748 39.0336 30.0128 39.0274C29.9633 39.0212 29.9137 39.015 29.8641 39.0088C29.7929 38.9995 29.7216 38.9871 29.6535 38.9747C29.6132 38.9685 29.5698 38.9623 29.5295 38.9561C29.4273 38.9375 29.322 38.9189 29.2197 38.8972C29.2105 38.8972 29.2043 38.8972 29.195 38.8941C28.7024 38.7919 28.2222 38.6525 27.7575 38.479C27.6026 38.4202 27.4477 38.3613 27.2959 38.2931C26.6887 38.0329 26.1094 37.7107 25.5611 37.3297C25.1645 37.054 24.7897 36.7535 24.4427 36.4251C24.325 36.3166 24.2134 36.2051 24.1019 36.0905C23.6589 35.632 23.2562 35.1332 22.903 34.5911C22.8132 34.4548 22.7295 34.3185 22.649 34.179C22.5313 33.9808 22.4259 33.7763 22.3206 33.5688C22.24 33.4046 22.1626 33.2404 22.0913 33.0731C21.8776 32.5743 21.701 32.0569 21.5678 31.5272C21.5306 31.3723 21.4934 31.2143 21.4625 31.0563C21.2053 29.7459 21.2146 28.4168 21.4903 27.1033C21.67 26.2483 21.9581 25.4304 22.3392 24.6652C22.4352 24.4731 22.5374 24.2873 22.6459 24.1045C22.6985 24.0115 22.7543 23.9217 22.8132 23.8319C22.9278 23.6522 23.0455 23.4756 23.1725 23.3021C23.2345 23.2154 23.2995 23.1317 23.3646 23.045C23.4947 22.8777 23.631 22.7135 23.7735 22.5524C21.6824 23.742 20.6167 25.8982 20.152 28.1225" fill="#CEFF00"/>
<path d="M26.952 20.8175C27.0357 20.864 27.1534 20.895 27.3145 20.8981C27.519 20.9012 27.7296 20.8175 27.9124 20.7091L26.2891 20.3683L26.8994 20.7804L26.9551 20.8175H26.952Z" fill="white"/>
<path d="M16.7009 6.68465C16.6265 6.46469 16.5305 6.37176 16.3725 6.37176C16.2145 6.37176 16.1247 6.46779 16.1247 6.62889C16.1247 6.98205 17.1222 7.00684 17.1222 7.74105C17.1222 8.47527 16.8465 8.41021 16.3756 8.41021C15.9047 8.41021 15.7312 8.21194 15.6104 7.75345L16.0503 7.66051C16.103 7.94242 16.2641 8.04156 16.3973 8.04156C16.5305 8.04156 16.673 7.93932 16.673 7.76274C16.673 7.32283 15.6755 7.31663 15.6755 6.65987C15.6755 6.0031 15.9202 6 16.3818 6C16.8434 6 17.0231 6.23544 17.1005 6.56693L16.6978 6.68465H16.7009Z" fill="#69BE29"/>
<path d="M17.937 7.91144H17.4754V8.37304H17.937V7.91144Z" fill="#69BE29"/>
<path d="M18.3955 8.37304V6.03098H19.6192V6.42752H18.8416V6.96656H19.4364V7.36H18.8416V7.9765H19.6532V8.37304H18.3955Z" fill="#69BE29"/>
<path d="M20.5826 7.91144H20.121V8.37304H20.5826V7.91144Z" fill="#69BE29"/>
<path d="M21.4903 8.37304V6.03098H22.1161L22.522 7.56757H22.5281L22.934 6.03098H23.5598V8.37304H23.1756V6.53285H23.1694L22.6923 8.37304H22.3578L21.8807 6.53285H21.8745V8.37304H21.4903Z" fill="#69BE29"/>
<path d="M23.9873 8.37304V6.03098H25.211V6.42752H24.4334V6.96656H25.0282V7.36H24.4334V7.9765H25.2451V8.37304H23.9873Z" fill="#69BE29"/>
<path d="M25.6075 8.37304V6.03098H26.0536V7.9765H26.7755V8.37304H25.6075Z" fill="#69BE29"/>
<path d="M27.4942 8.00438H27.6832C27.9155 8.00438 28.0394 7.86807 28.0394 7.6636C28.0394 7.45914 27.8845 7.32903 27.6491 7.32903H27.4942V8.00438ZM27.4942 6.96037H27.6491C27.8504 6.96037 27.9837 6.84265 27.9837 6.68465C27.9837 6.52665 27.8845 6.40273 27.6739 6.40273H27.4942V6.96037ZM27.0481 6.03098H27.677C28.1571 6.03098 28.4329 6.23235 28.4329 6.63508C28.4329 7.03782 28.3337 7.00684 28.1448 7.12146C28.3926 7.27636 28.4886 7.40647 28.4886 7.69768C28.4886 8.16238 28.1788 8.37304 27.7048 8.37304H27.0512V6.03098H27.0481Z" fill="#69BE29"/>
<path d="M29.2569 7.67909C29.2569 7.93932 29.3716 8.01058 29.5481 8.01058C29.7247 8.01058 29.8393 7.93932 29.8393 7.67909V6.72492C29.8393 6.46469 29.7247 6.39344 29.5481 6.39344C29.3716 6.39344 29.2569 6.46469 29.2569 6.72492V7.67909ZM28.8108 6.78378C28.8108 6.20756 29.1144 6 29.5481 6C29.9818 6 30.2885 6.20756 30.2885 6.78378V7.62023C30.2885 8.19645 29.9849 8.40402 29.5481 8.40402C29.1113 8.40402 28.8077 8.19645 28.8077 7.62023V6.78378H28.8108Z" fill="#69BE29"/>
<path d="M31.125 6.03098V7.6667C31.125 7.88976 31.221 8.00748 31.4379 8.00748C31.6547 8.00748 31.757 7.88976 31.757 7.6667V6.03098H32.2031V7.6698C32.2031 8.18406 31.8995 8.40092 31.4379 8.40092C30.9763 8.40092 30.6758 8.18406 30.6758 7.6698V6.03098H31.125Z" fill="#69BE29"/>
<path d="M33.0798 7.05021H33.3091C33.5073 7.05021 33.6281 6.95417 33.6281 6.72492C33.6281 6.49567 33.5073 6.39964 33.3091 6.39964H33.0798V7.05021ZM33.6808 8.37304L33.2905 7.41887H33.0767V8.37304H32.6306V6.03098H33.2781C33.8171 6.03098 34.0712 6.29121 34.0712 6.73112C34.0712 7.17103 33.9689 7.23299 33.718 7.32593L34.1579 8.36994H33.6777L33.6808 8.37304Z" fill="#69BE29"/>
<path d="M34.4584 8.37304V6.03098H34.9479L35.5706 7.41887H35.5768V6.03098H35.9857V8.37304H35.5582L34.8735 6.86123H34.8673V8.37304H34.4584Z" fill="#69BE29"/>
<path d="M36.4132 8.37304V6.03098H37.64V6.42752H36.8624V6.96656H37.4541V7.36H36.8624V7.9765H37.671V8.37304H36.4132Z" fill="#69BE29"/>
</svg>
